<ttFont>
          <CharString index="0">
            4 -65 rlineto
            92 319 hlineto
            153 -33 46 -118 -55 -47 -7 -5 -24 vhcurveto
            -79 vlineto
            2 3 48 5 45 hhcurveto
            75 8 -11 -97 hvcurveto
            -33 vlineto
            2 -22 -39 2 -23 hhcurveto
            -88 -27 -39 -113 hvcurveto
            return
          </CharString>
          <CharString index="1">
            rmoveto
            -64 callsubr
            280 -7 72 -160 -161 -7 -72 -280 -279 7 -73 161 hvcurveto
            95 vmoveto
            -56 -8 8 249 249 8 8 56 55 8 -8 -249 -249 -8 -8 -55 hvcurveto
            return
          </CharString>
          <CharString index="2">
            rmoveto
            196 -3 67 -138 12 callsubr
            vhcurveto
            -100 callgsubr
            return
          </CharString>
          <CharString index="3">
            rmoveto
            -65 hlineto
            -45 0 -28 -46 -45 -1 28 45 vhcurveto
            -65 hlineto
            -77 11 -56 100 101 10 56 77 vhcurveto
            return
          </CharString>
          <CharString index="4">
            33 89 rmoveto
            -41 -6 18 54 64 11 12 37 hvcurveto
            58 -34 hlineto
            -33 -1 -23 -5 -23 vhcurveto
            -33 -7 -22 -2 -24 hhcurveto
            return
          </CharString>
          <CharString index="5">
            rmoveto
            112 46 43 174 54 -3 35 -7 23 hvcurveto
            -16 50 -32 11 -32 8 -68 16 rcurveline
            -34 8 -5 11 74 vvcurveto
            36 2 25 11 18 vhcurveto
            16 11 21 7 43 hhcurveto
            44 37 -5 -2 7 hvcurveto
            87 vlineto
            2 -3 -47 13 -68 hhcurveto
            -107 -55 -42 -157 -100 8 -64 53 -12 hvcurveto
            79 -18 rlineto
            54 -12 3 -8 -93 vvcurveto
            -41 -3 -30 -13 -14 vhcurveto
            -15 -14 -19 -3 -34 hhcurveto
            -24 -42 4 4 -39 hvcurveto
            -87 vlineto
            -9 36 55 -7 43 hhcurveto
            return
          </CharString>
          <CharString index="6">
            -150 -3 -20 -55 -55 -3 132 callgsubr
            431 -104 -387 vlineto
            -237 4 -72 158 158 4 72 237 vhcurveto
            return
          </CharString>
          <CharString index="7">
            -99 callsubr
            endchar
          </CharString>
          <CharString index="8">
            rmoveto
            -431 vlineto
            -101 callsubr
            387 vlineto
            return
          </CharString>
          <CharString index="9">
            92 45 40 120 115 -31 18 -41 8 hvcurveto
            -63 13 rlineto
            -27 5 -5 5 55 vvcurveto
            51 19 12 41 26 38 -3 -6 23 vhcurveto
            78 vlineto
            9 -24 -45 6 -36 hhcurveto
            -89 -51 -39 -113 -94 18 -36 44 -9 hvcurveto
            71 -14 rlineto
            29 -6 8 -3 -60 vvcurveto
            -48 -19 -20 -49 -29 -45 4 4 -19 vhcurveto
            -77 vlineto
            return
          </CharString>
          <CharString index="10">
            -60 hlineto
            -32 -2 -12 -14 -12 -15 6 7 -17 vhcurveto
            return
          </CharString>
          <CharString index="11">
            rmoveto
            151 3 74 206 hvcurveto
            116 -156 -92 57 -36 vlineto
            -162 -2 -11 -56 -58 -7 17 240 243 11 14 96 22 44 -5 -7 38 vhcurveto
            88 vlineto
            10 -34 -53 9 -39 hhcurveto
            -156 -33 -55 -297 -291 21 -61 151 hvcurveto
            return
          </CharString>
          <CharString index="12">
            -32 callsubr
            -82 -5 hlineto
            39 -111 rlineto
            180 hmoveto
            -17 callgsubr
            -81 -5 hlineto
            39 -111 rlineto
            return
          </CharString>
          <CharString index="13">
            rmoveto
            -91 callgsubr
            endchar
          </CharString>
          <CharString index="14">
            254 95 -150 205 132 95 -132 198 150 95 -254 hlineto
            return
          </CharString>
          <CharString index="15">
            11 292 rmoveto
            -48 -6 12 160 157 6 12 48 28 16 -9 -45 7 hvcurveto
            4 -25 0 -37 -53 vvcurveto
            -60 0 -38 -5 -27 vhcurveto
            -36 -7 -15 -11 -28 hhcurveto
            endchar
          </CharString>
          <CharString index="16">
            58 -11 -40 14 -37 hhcurveto
            -90 -24 -48 -209 -203 19 -57 94 50 27 82 callgsubr
            -34 hlineto
            -128 -6 -25 -81 -38 -39 1 1 -23 vhcurveto
            -78 vlineto
            return
          </CharString>
          <CharString index="17">
            rmoveto
            65 hlineto
            23 1 1 45 17 vhcurveto
            8 3 rlineto
            return
          </CharString>
          <CharString index="18">
            rmoveto
            88 90 -88 hlineto
            163 -90 rmoveto
            88 90 -88 hlineto
            return
          </CharString>
          <CharString index="19">
            rmoveto
            92 3 callgsubr
            -97 callgsubr
            hintmask 10011110
            -57 callsubr
            hintmask 00111110
            -78 callgsubr
            endchar
          </CharString>
          <CharString index="20">
            rmoveto
            -62 -388 rlineto
            -6 hlineto
            -64 388 rlineto
            -99 hlineto
            99 -510 rlineto
            33 hlineto
            -37 -193 rlineto
            97 hlineto
            136 703 rlineto
            endchar
          </CharString>
          <CharString index="21">
            rmoveto
            78 vlineto
            -5 -18 -24 -2 -20 hhcurveto
            -63 -10 16 163 159 11 20 61 18 24 -2 -4 19 hvcurveto
            79 vlineto
            7 -26 -31 4 -33 hhcurveto
            -114 -27 -64 -199 -184 18 -79 125 29 31 4 9 30 hvcurveto
            endchar
          </CharString>
          <CharString index="22">
            -71 277 rlineto
            51 34 6 71 89 vvcurveto
            135 -15 82 -133 vhcurveto
            -171 -688 104 253 55 hlineto
            9 hlineto
            58 -253 rlineto
            -69 345 rmoveto
            -53 248 53 hlineto
            53 5 -28 -96 -97 -6 -27 -52 hvcurveto
            endchar
          </CharString>
          <CharString index="23">
            rmoveto
            65 hlineto
            45 0 28 46 45 1 -28 -45 vhcurveto
            65 hlineto
            77 -11 56 -100 85 callgsubr
            vhcurveto
            return
          </CharString>
          <CharString index="24">
            rmoveto
            100 5 31 68 69 -5 31 -100 -101 -6 -31 -69 -68 6 -31 101 hvcurveto
            55 vmoveto
            -36 -2 8 36 36 2 10 36 35 3 -10 -36 -36 -3 -8 -35 hvcurveto
            return
          </CharString>
          <CharString index="25">
            rmoveto
            66 hlineto
            39 111 rlineto
            5 -81 vlineto
            -24 -111 rlineto
            113 -5 rmoveto
            67 hlineto
            39 111 rlineto
            5 -82 vlineto
            -24 -111 rlineto
            return
          </CharString>
          <CharString index="26">
            145 hlineto
            77 688 rlineto
            -103 hlineto
            -44 -568 rlineto
            -7 hlineto
            -67 568 rlineto
            -128 hlineto
            -66 -568 rlineto
            -7 hlineto
            -46 568 rlineto
            -105 hlineto
            75 -688 rlineto
            146 hlineto
            return
          </CharString>
          <CharString index="27">
            rmoveto
            -226 vlineto
            -150 -2 -20 -56 -55 -2 132 callgsubr
            226 -104 -182 vlineto
            return
          </CharString>
          <CharString index="28">
            88 21 -72 callgsubr
            return
          </CharString>
          <CharString index="29">
            38 38 18 55 10 hvcurveto
            8 hlineto
            return
          </CharString>
          <CharString index="30">
            93 21 -69 callgsubr
            return
          </CharString>
          <CharString index="31">
            rmoveto
            hintmask 11111010
            -82 callgsubr
            hintmask 11111100
            -37 callsubr
            hintmask 11111010
            -58 callgsubr
            endchar
          </CharString>
          <CharString index="32">
            rmoveto
            194 -4 67 -138 -51 -32 -13 -32 -20 vhcurveto
            34 -21 -32 11 -50 hhcurveto
            -56 -49 -8 -4 -20 hvcurveto
            -79 vlineto
            4 28 35 3 33 hhcurveto
            74 8 -11 -97 hvcurveto
            -33 vlineto
            1 -26 -31 1 -27 hhcurveto
            -88 -27 -38 -111 -110 29 -44 95 46 46 11 46 26 hvcurveto
            -42 22 35 -15 57 hhcurveto
            45 54 6 7 30 hvcurveto
            78 vlineto
            -4 -25 -56 -3 -26 hhcurveto
            -76 -5 21 131 hvcurveto
            197 hlineto
            -142 206 rmoveto
            42 9 -9 -121 hvcurveto
            -8 -106 vlineto
            126 6 12 49 vhcurveto
            -153 -241 rmoveto
            -33 -1 -23 -5 -22 vhcurveto
            -36 -8 -20 -3 -24 hhcurveto
            -40 -7 19 58 63 10 12 38 hvcurveto
            57 hlineto
            endchar
          </CharString>
          <CharString index="33">
            rmoveto
            -30 vlineto
            -44 -5 -17 -37 vhcurveto
            return
          </CharString>
          <CharString index="34">
            rmoveto
            79 hlineto
            30 -26 callsubr
            -13 -139 rlineto
            return
          </CharString>
          <CharString index="35">
            rmoveto
            -71 callsubr
          </CharString>
          <CharString index="36">
            -49 callgsubr
            161 4 18 51 52 3 -18 -161 -162 -3 -17 -52 hvcurveto
            endchar
          </CharString>
          <CharString index="37">
            66 -8 -53 callsubr
            return
          </CharString>
          <CharString index="38">
            13 16 -8 -8 17 return
          </CharString>
          <CharString index="39">
            105 0 89 512 95 hstemhm
            40 102 -101 147 39 147 -102 103 hintmask 11100100
            41 hmoveto
            hintmask 11010100
            147 89 hlineto
            hintmask 11100100
            -41 16 -5 41 215 vvcurveto
            215 6 25 59 59 6 -25 -215 vhcurveto
            hintmask 11101000
            -215 -5 -41 -40 -16 vhcurveto
            -89 vlineto
            hintmask 11100100
            147 89 -7 hlineto
            hintmask 11101000
            -22 -8 -22 -5 -22 -6 rrcurveto
            6 vlineto
            hintmask 11100100
            53 36 21 95 166 vvcurveto
            239 -13 84 -155 -155 -12 -84 -239 -166 20 -95 53 -36 vhcurveto
            -6 vlineto
            -22 6 -22 5 -22 8 rrcurveto
            -6 hlineto
            endchar
          </CharString>
          <CharString index="40">
            -155 -61 callsubr
            return
          </CharString>
          <CharString index="41">
            6 -19 -24 2 -30 -25 callgsubr
            139 14 50 213 hvcurveto
            return
          </CharString>
          <CharString index="42">
            14 0 95 205 95 198 95 return
          </CharString>
          <CharString index="43">
            160 7 73 279 return
          </CharString>
          <CharString index="44">
            6 -20 -24 2 -29 hhcurveto
            -161 -7 -72 -280 -279 7 -73 161 -64 callsubr
            return
          </CharString>
          <CharString index="45">
            -213 14 -50 139 return
          </CharString>
          <CharString index="46">
            -145 -107 callgsubr
            return
          </CharString>
          <CharString index="47">
            -48 -6 12 163 163 6 12 46 30 15 -10 -44 7 hvcurveto
            4 -26 1 -38 -50 vvcurveto
            -59 0 -37 -4 -35 vhcurveto
            return
          </CharString>
          <CharString index="48">
            44 17 0 19 42 vvcurveto
            60 -39 10 -66 -32 -38 -6 -6 -34 vhcurveto
            -54 vlineto
            32 32 -8 callgsubr
            return
          </CharString>
          <CharString index="49">
            166 -8 -102 callsubr
            return
          </CharString>
          <CharString index="50">
            -133 14 -48 86 vhcurveto
            return
          </CharString>
          <CharString index="51">
            -158 -4 -72 -237 return
          </CharString>
          <CharString index="52">
            rmoveto
            -32 callgsubr
            79 vlineto
            return
          </CharString>
          <CharString index="53">
            rmoveto
            hintmask 11110010
            -2 callgsubr
            hintmask 11101100
            -44 callsubr
            hintmask 11110100
            -31 -9 -17 -20 -64 vvcurveto
            -75 25 -29 76 vhcurveto
            hintmask 11101100
            -38 callsubr
            hintmask 11110010
            -41 callgsubr
          </CharString>
          <CharString index="54">
            88 -48 callgsubr
            return
          </CharString>
          <CharString index="55">
            rmoveto
            98 337 hlineto
            hintmask 10011110
            0 callgsubr
            hintmask 11001110
            -26 callgsubr
            hintmask 10101110
            -79 callgsubr
            endchar
          </CharString>
          <CharString index="56">
            156 349 rlineto
            77 -260 -84 152 vlineto
            return
          </CharString>
          <CharString index="57">
            -207 3 -81 105 -17 vhcurveto
            -201 105 200 vlineto
            return
          </CharString>
          <CharString index="58">
            16 24 48 101 vvcurveto
            139 -50 39 -107 -107 -49 -39 -139 -101 23 -48 50 -16 vhcurveto
            -4 vlineto
            hintmask 11110100
            -51 -15 -28 -36 -116 vvcurveto
            hintmask 11110010
            -140 43 -50 119 vhcurveto
            hintmask 11101100
            399 vmoveto
            -48 -7 15 92 92 6 16 49 50 6 -16 -92 -92 -7 -15 -49 hvcurveto
            hintmask 11110010
            -309 vmoveto
            -47 -9 15 96 98 7 14 49 50 7 -14 -98 -96 -9 -15 -48 hvcurveto
            endchar
          </CharString>
          <CharString index="59">
            119 34 40 73 vhcurveto
            105 vlineto
            -52 -32 -20 -75 -17 hvcurveto
            -7 hlineto
            return
          </CharString>
          <CharString index="60">
            rmoveto
            5 vlineto
            -30 -23 callsubr
            -97 -5 hlineto
            48 -139 rlineto
            return
          </CharString>
          <CharString index="61">
            rmoveto
            293 95 -183 hlineto
            hintmask 11101000
            -35 callgsubr
            hintmask 11110000
            -181 -504 rlineto
            endchar
          </CharString>
          <CharString index="62">
            -21 -20 callsubr
            return
          </CharString>
          <CharString index="63">
            31 9 15 26 55 vvcurveto
            75 -31 24 -68 -69 -29 -24 -75 -55 15 -26 30 -9 vhcurveto
            -2 vlineto
            return
          </CharString>
          <CharString index="64">
            -172 110 return
          </CharString>
          <CharString index="65">
            rmoveto
            23 13 3 26 42 vvcurveto
            69 -5 31 -100 -101 -5 -31 -69 -42 1 -26 26 -14 vhcurveto
            -110 -681 rlineto
            104 hlineto
            26 163 rlineto
            116 hlineto
            26 -163 rlineto
            105 hlineto
            -188 809 rmoveto
            36 2 -10 -36 -36 -2 -8 -36 -36 -2 8 36 36 2 10 36 hvcurveto
            -51 -554 rmoveto
            46 317 rlineto
            7 hlineto
            47 -317 rlineto
            endchar
          </CharString>
          <CharString index="66">
            vvcurveto
            -21 65 vlineto
            23 1 1 45 17 vhcurveto
            8 3 rlineto
            return
          </CharString>
          <CharString index="67">
            2 -74 callsubr
            hintmask 0100111100000000
            -48 -97 callgsubr
            hintmask 1000111100000000
            -57 callsubr
            hintmask 0010111100000000
            -78 callgsubr
            hintmask 0101011100000000
            4 -64 rlineto
            92 465 hlineto
            hintmask 0100111010000000
            50 -22 callsubr
            endchar
          </CharString>
          <CharString index="68">
            69 -2 82 -48 callgsubr
            97 callgsubr
            hintmask 01011100
            240 510 rmoveto
            -254 vlineto
            -132 1 -44 -54 -43 -7 11 126 vhcurveto
            293 -98 -699 99 vlineto
            hintmask 10011100
            188 vlineto
            -1 7 8 0 8 hhcurveto
            hintmask 00111100
            46 18 27 39 10 hvcurveto
            7 hlineto
            hintmask 01011100
            4 -64 rlineto
            92 510 hlineto
            endchar
          </CharString>
          <CharString index="69">
            219 vmoveto
            -30 -5 9 49 51 5 10 30 31 4 -10 -51 -49 -4 -9 -31 hvcurveto
            return
          </CharString>
          <CharString index="70">
            39 hlineto
            58 3 -29 -72 4 hvcurveto
            11 -158 rlineto
            103 hlineto
            return
          </CharString>
          <CharString index="71">
            -34 -14 -14 -14 -6 hvcurveto
            -5 hlineto
            107 5 16 56 16 26 -3 -2 19 vhcurveto
            49 vlineto
            6 -21 -30 4 -21 hhcurveto
            -57 -29 -15 -42 -16 hvcurveto
            -8 -22 -3 -48 -69 vvcurveto
            -77 1 -50 6 -16 vhcurveto
            -41 15 25 -8 54 hhcurveto
            -3 51 rmoveto
            -27 -7 11 65 48 3 11 31 30 5 -3 -64 -56 -6 -12 -29 hvcurveto
            endchar
          </CharString>
          <CharString index="72">
            -139 -14 -51 -212 -62 callsubr
            return
          </CharString>
          <CharString index="73">
            83 0 95 205 96 197 95 hstem
            96 callsubr
            vstem
            4 callsubr
            -292 -41 -96 41 hlineto
            149 -205 rmoveto
            -47 205 66 96 -66 197 47 hlineto
            65 callgsubr
            -242 -8 -7 -55 hvcurveto
            endchar
          </CharString>
          <CharString index="74">
            93 -8 95 601 -20 return
          </CharString>
          <CharString index="75">
            rmoveto
            -17 callgsubr
            return
          </CharString>
          <CharString index="76">
            12 callsubr
            4 callgsubr
            197 return
          </CharString>
          <CharString index="77">
            -97 rmoveto
            -31 callsubr
            29 hlineto
            196 -3 67 -138 vhcurveto
            -1 -84 69 callsubr
          </CharString>
          <CharString index="78">
            65 62 65 hstemhm
            return
          </CharString>
          <CharString index="79">
            5 -96 vlineto
            return
          </CharString>
          <CharString index="80">
            -21 430 -20 callgsubr
            return
          </CharString>
          <CharString index="81">
            67 callgsubr
            -96 vlineto
            return
          </CharString>
          <CharString index="82">
            rmoveto
            32 51 rlineto
            -48 31 -33 53 62 vvcurveto
            61 33 54 49 31 vhcurveto
            -32 51 rlineto
            -66 -41 -44 -73 -83 vvcurveto
            -83 44 -73 65 -41 vhcurveto
            return
          </CharString>
          <CharString index="83">
            149 hlineto
            159 7 72 272 return
          </CharString>
          <CharString index="84">
            139 rlineto
            return
          </CharString>
          <CharString index="85">
            11 8 32 74 vvcurveto
            19 vlineto
            return
          </CharString>
          <CharString index="86">
            220 9 128 48 vvcurveto
            91 -120 -91 vlineto
            -48 10 -128 20 -220 vhcurveto
            return
          </CharString>
          <CharString index="87">
            688 -20 return
          </CharString>
          <CharString index="88">
            888 -16 callsubr
            return
          </CharString>
          <CharString index="89">
            306 277 rmoveto
            51 34 6 71 89 vvcurveto
            135 -15 82 -133 vhcurveto
            -171 -688 104 253 55 hlineto
            9 hlineto
            58 -253 rlineto
            107 hlineto
            -176 345 rmoveto
            -53 248 53 hlineto
            53 5 -28 -96 -97 -6 -27 -52 hvcurveto
            return
          </CharString>
          <CharString index="90">
            -23 -6 -9 -12 -25 vvcurveto
            return
          </CharString>
          <CharString index="91">
            rmoveto
            -97 callsubr
            hintmask 11101100
            -103 callgsubr
            hintmask 11010110
            -94 callgsubr
            hintmask 11100100
            return
          </CharString>
          <CharString index="92">
            -132 -13 callgsubr
            return
          </CharString>
          <CharString index="93">
            -18 -173 -104 callsubr
            return
          </CharString>
          <CharString index="94">
            -21 163 92 return
          </CharString>
          <CharString index="95">
            rmoveto
            93 5 32 162 161 -2 33 -96 -93 -5 -33 -161 -162 5 -32 93 hvcurveto
            54 vmoveto
            -32 -3 5 135 135 3 5 32 32 3 -5 -135 -135 -3 -5 -32 hvcurveto
            endchar
          </CharString>
          <CharString index="96">
            44 -10 -26 22 -51 hhcurveto
            -94 -19 -58 -205 return
          </CharString>
          <CharString index="97">
            -259 46 68 83 return
          </CharString>
          <CharString index="98">
            45 callgsubr
            endchar
          </CharString>
          <CharString index="99">
            73 -8 92 209 92 216 95 return
          </CharString>
          <CharString index="100">
            63 hlineto
            278 688 rlineto
            -62 hlineto
            return
          </CharString>
          <CharString index="101">
            -21 510 -20 return
          </CharString>
          <CharString index="102">
            514 95 return
          </CharString>
          <CharString index="103">
            -29 -90 -28 -41 4 6 -27 vhcurveto
            -87 vlineto
            -10 32 47 -8 35 hhcurveto
            23 364 rmoveto
            -46 -9 4 119 110 10 13 45 45 11 -13 -124 -93 -6 -16 -50 hvcurveto
            endchar
          </CharString>
          <CharString index="104">
            143 -8 rmoveto
            37 39 14 58 12 hvcurveto
            7 hlineto
            return
          </CharString>
          <CharString index="105">
            77 callgsubr
            -3 hhcurveto
            -30 -8 19 22 return
          </CharString>
          <CharString index="106">
            hstem
            131 callsubr
            vstem
            return
          </CharString>
          <CharString index="107">
            -43 callsubr
            83 -21 return
          </CharString>
          <CharString index="108">
            32 104 127 104 return
          </CharString>
          <CharString index="109">
            95 rmoveto
            -87 vlineto
            -9 37 57 -7 40 hhcurveto
            130 30 57 173 131 -21 72 -114 -24 -21 -2 -4 -13 hvcurveto
            174 172 95 -269 -366 vlineto
            6 33 return
          </CharString>
          <CharString index="110">
            -20 hstem
            155 86 vstem
            198 -85 rmoveto
            127 270 -84 -34 rlineto
            308 vlineto
            84 -33 -127 270 -128 -270 85 33 rlineto
            -308 vlineto
            -85 34 rlineto
            return
          </CharString>
          <CharString index="111">
            44 hmoveto
            10 callsubr
            return
          </CharString>
          <CharString index="112">
            -30 callgsubr
            endchar
          </CharString>
          <CharString index="113">
            -45 vlineto
            97 13 34 118 hvcurveto
            84 -103 -105 39 -14 vlineto
            -54 -5 -18 -41 vhcurveto
            return
          </CharString>
          <CharString index="114">
            285 0 120 402 166 0 -20 return
          </CharString>
          <CharString index="115">
            215 0 132 194 184 0 -20 return
          </CharString>
          <CharString index="116">
            104 hintmask 11110100
            259 688 rmoveto
            -431 vlineto
            -150 -3 -20 -55 -55 -3 132 callgsubr
            431 -104 -387 vlineto
            -237 4 -72 158 return
          </CharString>
          <CharString index="117">
            -24 callsubr
            28 callgsubr
            hvcurveto
            -149 return
          </CharString>
          <CharString index="118">
            269 hmoveto
            108 hlineto
            -109 353 108 335 rlineto
            -107 hlineto
            -82 -289 rlineto
            -39 289 -104 -688 104 298 39 hlineto
            return
          </CharString>
          <CharString index="119">
            -147 -7 -78 -186 -188 10 -74 148 46 53 6 7 29 return
          </CharString>
          <CharString index="120">
            154 10 81 189 hvcurveto
            return
          </CharString>
          <CharString index="121">
            -4 17 21 -2 25 hhcurveto
            -64 callsubr
            156 -2 92 -30 50 hvcurveto
            -135 -555 rmoveto
            -56 -8 8 249 hvcurveto
            return
          </CharString>
          <CharString index="122">
            vstem
            190 -8 rmoveto
            150 7 73 279 279 -2 73 -155 -150 -6 -73 -279 -279 6 -73 150 hvcurveto
            return
          </CharString>
          <CharString index="123">
            718 rmoveto
            -22 -13 -5 -36 -11 vhcurveto
            -9 -2 rlineto
            return
          </CharString>
          <CharString index="124">
            31 20 21 34 42 vvcurveto
            41 -21 35 -32 20 vhcurveto
            -32 -51 rlineto
            15 -9 10 -16 -20 vvcurveto
            -20 -10 -16 -14 -9 vhcurveto
            endchar
          </CharString>
          <CharString index="125">
            -115 -11 -75 -189 -206 11 -56 143 hvcurveto
            -1 84 rmoveto
            -54 -1 22 157 161 1 18 54 54 1 return
          </CharString>
          <CharString index="126">
            53 10 8 32 76 vvcurveto
            19 vlineto
            return
          </CharString>
          <CharString index="127">
            -81 callgsubr
            hintmask 11111001
            return
          </CharString>
          <CharString index="128">
            -4 11 15 -2 19 hhcurveto
            139 14 50 213 115 -4 68 -26 38 hvcurveto
            30 89 rlineto
            -89 hlineto
            -19 -54 rlineto
            return
          </CharString>
          <CharString index="129">
            3 -17 -21 2 -23 hhcurveto
            -161 -7 -72 -280 -155 2 -92 30 -50 hvcurveto
            -32 -102 rlineto
            89 hlineto
            16 53 rlineto
            return
          </CharString>
          <CharString index="130">
            1034 rmoveto
            -97 callsubr
            return
          </CharString>
          <CharString index="131">
            86 21 43 callgsubr
            return
          </CharString>
          <CharString index="132">
            86 21 42 callsubr
            return
          </CharString>
          <CharString index="133">
            hstemhm
            29 98 109 98 return
          </CharString>
          <CharString index="134">
            -4 34 48 -3 38 hhcurveto
            return
          </CharString>
          <CharString index="135">
            39 104 116 104 return
          </CharString>
          <CharString index="136">
            -77 callsubr
            59 60 102 94 callgsubr
            -54 65 92 65 -52 104 hintmask 1111110010000000
            return
          </CharString>
          <CharString index="137">
            vmoveto
            -146 -5 14 298 299 5 13 146 146 5 -13 -299 -298 -5 -14 -146 hvcurveto
            return
          </CharString>
          <CharString index="138">
            88 75 callsubr
            45 352 vstem
            397 hmoveto
            696 vlineto
            -207 -145 -143 -205 return
          </CharString>
          <CharString index="139">
            rmoveto
            65 hlineto
            45 1 28 46 45 0 -28 -45 vhcurveto
            65 hlineto
            77 -10 56 -100 -101 -11 -56 -77 vhcurveto
            endchar
          </CharString>
          <CharString index="140">
            277 hmoveto
            -73 callgsubr
            return
          </CharString>
          <CharString index="141">
            vstem
            36 498 rmoveto
            -46 vlineto
            97 14 34 119 hvcurveto
            83 -104 -105 39 -14 vlineto
            -54 -5 -17 -41 vhcurveto
            return
          </CharString>
          <CharString index="142">
            105 592 103 96 -311 -96 103 hlineto
            return
          </CharString>
          <CharString index="143">
            60 117 -77 callgsubr
            -235 61 -47 65 92 65 -42 60 hintmask 00000000
            hintmask 10110010
            19 return
          </CharString>
          <CharString index="144">
            hhcurveto
            31 6 -6 -42 -26 -5 -14 -13 -10 hvcurveto
            -57 -37 rlineto
            -30 -21 -1 -25 -96 vvcurveto
            -41 173 return
          </CharString>
          <CharString index="145">
            65 callsubr
            -743 vmoveto
            33 callgsubr
            return
          </CharString>
          <CharString index="146">
            rmoveto
            -88 -90 88 hlineto
            163 90 rmoveto
            -88 -90 88 hlineto
            return
          </CharString>
          <CharString index="147">
            hstemhm
            21 293 -287 284 return
          </CharString>
          <CharString index="148">
            -77 callgsubr
            29 98 return
          </CharString>
          <CharString index="149">
            -21 253 92 248 95 return
          </CharString>
          <CharString index="150">
            hstem
            1 callsubr
            vstem
            return
          </CharString>
          <CharString index="151">
            105 -195 75 141 -45 callsubr
            128 callsubr
            271 688 rmoveto
            return
          </CharString>
          <CharString index="152">
            -149 hlineto
            102 -593 -47 callgsubr
            return
          </CharString>
          <CharString index="153">
            rmoveto
            95 12 40 151 152 -12 41 -95 -94 -13 -41 -152 -151 13 -40 94 hvcurveto
            return
          </CharString>
          <CharString index="154">
            -8 rmoveto
            118 43 53 137 113 -28 40 -52 14 hvcurveto
            4 vlineto
            hintmask 11101000
            49 16 return
          </CharString>
          <CharString index="155">
            41 callgsubr
            76 144 hstemhm
            28 callsubr
            -9 66 hintmask 10111100
            return
          </CharString>
          <CharString index="156">
            -45 240 91 hstem
            50 165 vstem
            50 240 -50 callgsubr
            endchar
          </CharString>
          <CharString index="157">
            70 hlineto
            86 332 rlineto
            47 -171 -54 104 vlineto
            return
          </CharString>
          <CharString index="158">
            rmoveto
            45 1 -28 -45 hvcurveto
            65 hlineto
            77 -11 56 -100 return
          </CharString>
          <CharString index="159">
            93 callsubr
            514 95 return
          </CharString>
          <CharString index="160">
            -60 callgsubr
            81 144 hstem
            return
          </CharString>
          <CharString index="161">
            hstemhm
            36 98 -72 88 75 88 -76 98 return
          </CharString>
          <CharString index="162">
            48 -63 callgsubr
            return
          </CharString>
          <CharString index="163">
            98 254 hlineto
            return
          </CharString>
          <CharString index="164">
            49 124 46 119 50 hstemhm
            11 63 callsubr
            hintmask 11110100
            112 return
          </CharString>
          <CharString index="165">
            rmoveto
            65 45 45 65 65 -45 45 -65 -65 -45 -45 -65 -65 45 -45 65 hvcurveto
            60 vmoveto
            return
          </CharString>
          <CharString index="166">
            45 -195 75 141 -6 callsubr
            151 102 hstem
            39 98 79 98 vstem
            39 return
          </CharString>
          <CharString index="167">
            62 522 rlineto
            6 hlineto
            endchar
          </CharString>
          <CharString index="168">
            31 hhcurveto
            73 4 41 77 hvcurveto
            -62 hlineto
            -31 -3 -12 -21 -17 -21 8 6 -24 vhcurveto
            return
          </CharString>
          <CharString index="169">
            66 callsubr
            -291 -115 291 -104 -688 104 297 115 hlineto
            return
          </CharString>
          <CharString index="170">
            65 -62 63 70 64 -62 65 return
          </CharString>
          <CharString index="171">
            -20 124 -29 callsubr
            return
          </CharString>
          <CharString index="172">
            rmoveto
            99 102 -99 hlineto
            return
          </CharString>
          <CharString index="173">
            104 688 -104 return
          </CharString>
          <CharString index="174">
            64 callsubr
            36 98 -6 65 25 73 -54 56 callgsubr
            return
          </CharString>
          <CharString index="175">
            -189 rmoveto
            86 hlineto
            37 192 rlineto
            5 -63 vlineto
            -60 -192 rlineto
            endchar
          </CharString>
          <CharString index="176">
            rmoveto
            42 9 -10 -120 hvcurveto
            -10 -106 vlineto
            127 7 13 48 vhcurveto
            endchar
          </CharString>
          <CharString index="177">
            hstemhm
            39 104 4 108 4 104 return
          </CharString>
          <CharString index="178">
            116 hstem
            -226 219 vstem
            return
          </CharString>
          <CharString index="179">
            61 133 60 hintmask 00000000
            return
          </CharString>
          <CharString index="180">
            33 -13 callgsubr
            return
          </CharString>
          <CharString index="181">
            -8 95 callsubr
            return
          </CharString>
          <CharString index="182">
            21 -21 696 -20 hstem
            return
          </CharString>
          <CharString index="183">
            hstem
            29 98 106 91 vstem
            return
          </CharString>
          <CharString index="184">
            128 12 144 hstemhm
            return
          </CharString>
          <CharString index="185">
            303 85 callsubr
            return
          </CharString>
          <CharString index="186">
            rmoveto
            -431 vlineto
            -150 -3 -20 -55 vhcurveto
            return
          </CharString>
          <CharString index="187">
            574 261 87 hstem
            55 773 vstem
            return
          </CharString>
          <CharString index="188">
            29 77 54 -16 25 -29 11 hvcurveto
            4 vlineto
            return
          </CharString>
          <CharString index="189">
            21 -21 426 84 return
          </CharString>
          <CharString index="190">
            46 hlineto
            21 8 -11 -44 -44 -10 -5 -29 -15 -29 2 3 -19 hvcurveto
            return
          </CharString>
          <CharString index="191">
            rmoveto
            265 50 vlineto
            53 5 -28 -104 -104 -5 -29 -53 hvcurveto
            endchar
          </CharString>
          <CharString index="192">
            916 rmoveto
            -97 callsubr
            return
          </CharString>
          <CharString index="193">
            64 hlineto
            136 12 96 132 141 -14 86 -134 hvcurveto
            return
          </CharString>
          <CharString index="194">
            8 50 51 5 -8 -249 -249 -5 -8 -51 hvcurveto
            endchar
          </CharString>
          <CharString index="195">
            -21 592 96 hstem
            111 105 vstem
            return
          </CharString>
          <CharString index="196">
            659 rmoveto
            -69 callsubr
            hvcurveto
            return
          </CharString>
          <CharString index="197">
            641 65 callsubr
            return
          </CharString>
          <CharString index="198">
            -4 49 -24 -21 169 46 return
          </CharString>
          <CharString index="199">
            3 0 84 342 84 return
          </CharString>
          <CharString index="200">
            -43 callsubr
            54 95 return
          </CharString>
          <CharString index="201">
            -4 87 rlineto
            -93 hlineto
            return
          </CharString>
          <CharString index="202">
            88 -80 80 -16 16 return
          </CharString>
          <CharString index="203">
            44 102 110 103 return
          </CharString>
          <CharString index="204">
            hintmask 1111011001000000
            -94 callgsubr
            return
          </CharString>
          <CharString index="205">
            vstem
            -1 628 rmoveto
            567 60 -567 hlineto
            -688 vmoveto
            return
          </CharString>
          <CharString index="206">
            hintmask 00000000
            hintmask 11110100
            return
          </CharString>
          <CharString index="207">
            -138 434 254 hstemhm
            38 95 hintmask 00000000
            hintmask 11000000
            return
          </CharString>
          <CharString index="208">
            377 -8 88 -80 84 342 84 -80 22 -22 88 return
          </CharString>
          <CharString index="209">
            rmoveto
            338 130 rlineto
            91 vlineto
            -338 130 rlineto
            return
          </CharString>
          <CharString index="210">
            54 94 53 135 52 hstem
            10 62 71 63 vstem
            93 return
          </CharString>
          <CharString index="211">
            88 -80 80 350 22 -22 88 return
          </CharString>
          <CharString index="212">
            55 -60 callgsubr
            -8 -20 return
          </CharString>
          <CharString index="213">
            hstemhm
            32 104 9 108 10 104 return
          </CharString>
          <CharString index="214">
            110 hstem
            47 108 vstem
            47 return
          </CharString>
          <CharString index="215">
            8 -30 -34 11 -32 hhcurveto
            -73 -4 return
          </CharString>
          <CharString index="216">
            66 21 -21 430 22 -22 88 return
          </CharString>
          <CharString index="217">
            139 callgsubr
            vhcurveto
            return
          </CharString>
          <CharString index="218">
            -196 58 130 return
          </CharString>
          <CharString index="219">
            hstem
            39 98 vstem
            return
          </CharString>
          <CharString index="220">
            -2 -55 -177 rcurveline
            -5 86 vlineto
            35 183 rlineto
            return
          </CharString>
          <CharString index="221">
            vlineto
            -58 -184 rlineto
            -5 86 vlineto
            36 189 rlineto
            return
          </CharString>
          <CharString index="222">
            327 133 callsubr
            return
          </CharString>
          <CharString index="223">
            54 280 54 hstem
            17 63 70 63 vstem
            115 return
          </CharString>
          <CharString index="224">
            27 callsubr
            endchar
          </CharString>
          <CharString index="225">
            -63 callgsubr
            hstem
            return
          </CharString>
          <CharString index="226">
            97 128 hstemhm
            29 98 return
          </CharString>
          <CharString index="227">
            -21 413 105 -8 -20 return
          </CharString>
          <CharString index="228">
            8 rlineto
            hintmask 11001000
            27 21 11 17 63 vvcurveto
            93 return
          </CharString>
          <CharString index="229">
            53 callgsubr
            29 98 return
          </CharString>
          <CharString index="230">
            -103 -2 -39 -110 -111 2 -39 103 hvcurveto
            return
          </CharString>
          <CharString index="231">
            394 0 84 -84 95 331 84 83 95 return
          </CharString>
          <CharString index="232">
            23 -39 65 13 110 callsubr
            56 vlineto
            return
          </CharString>
          <CharString index="233">
            -26 -4 3 112 111 4 4 26 26 return
          </CharString>
          <CharString index="234">
            hhcurveto
            94 19 58 205 213 -23 50 -91 return
          </CharString>
          <CharString index="235">
            hstem
            66 callgsubr
            vstem
            return
          </CharString>
          <CharString index="236">
            39 hmoveto
            96 callgsubr
            return
          </CharString>
          <CharString index="237">
            rmoveto
            -165 -91 165 hlineto
            return
          </CharString>
          <CharString index="238">
            29 98 110 98 return
          </CharString>
          <CharString index="239">
            -107 -161 904 hstem
            54 94 vstem
            54 return
          </CharString>
          <CharString index="240">
            601 -74 callsubr
            return
          </CharString>
          <CharString index="241">
            779 -74 callsubr
            return
          </CharString>
          <CharString index="242">
            55 -8 84 -57 -21 436 84 -7 -20 return
          </CharString>
          <CharString index="243">
            98 vstem
            39 90 callsubr
            return
          </CharString>
          <CharString index="244">
            hintmask 00000000
            hintmask 11101000
            return
          </CharString>
          <CharString index="245">
            95 498 95 return
          </CharString>
        <CharString name=".notdef">
          191 0 50 49 70 383 50 48 50 hstemhm
          0 50 49 53 73 60 -56 53 57 54 57 50 hintmask 1111110111000000
          0 vmoveto
          500 700 -500 hlineto
          450 -50 rmoveto
          -600 -400 600 vlineto
          179 -435 rmoveto
          53 53 hlineto
          33 21 18 23 19 vhcurveto
          30 26 37 36 67 vvcurveto
          12 -3 123 -140 -140 -11 -124 -23 -11 2 -13 2 -7 vhcurveto
          49 28 hlineto
          23 8 77 90 77 12 -59 -28 -51 -28 -24 -28 -23 vhcurveto
          -28 -23 -26 -23 -43 vvcurveto
          hintmask 1111111011000000
          -4 -179 rmoveto
          60 70 -60 hlineto
          endchar
        </CharString>
        <CharString name="A">
          -79 callsubr
          hstem
          10 377 vstem
          282 hmoveto
          -104 callgsubr
          endchar
        </CharString>
        <CharString name="A.ss01">
          -77 callsubr
          -31 callgsubr
          259 hmoveto
          -106 callgsubr
          endchar
        </CharString>
        <CharString name="AE">
          123 callgsubr
          hstem
          -9 503 vstem
          267 hmoveto
          -21 callgsubr
        </CharString>
        <CharString name="AEacute">
          123 callgsubr
          56 144 hstem
          -9 503 vstem
          226 744 -101 callgsubr
          41 -749 rmoveto
          -21 callgsubr
        </CharString>
        <CharString name="Aacute">
          -79 callsubr
          62 144 hstem
          10 377 vstem
          154 750 -101 callgsubr
          128 -755 rmoveto
          -104 callgsubr
          endchar
        </CharString>
        <CharString name="Aacute.ss01">
          -77 callsubr
          54 144 -31 callgsubr
          161 750 -101 callgsubr
          98 -755 rmoveto
          -106 callgsubr
          endchar
        </CharString>
        <CharString name="Abreve">
          -79 callsubr
          67 60 hstem
          87 65 92 65 vstem
          21 callgsubr
          -27 -888 rmoveto
          -104 callgsubr
          endchar
        </CharString>
        <CharString name="Abreve.ss01">
          -77 callsubr
          59 60 hstemhm
          39 104 -54 65 92 65 -52 104 138 callgsubr
          311 20 callsubr
          -52 -888 rmoveto
          -106 callgsubr
          endchar
        </CharString>
        <CharString name="Acircumflex">
          -79 callsubr
          62 128 hstem
          10 377 vstem
          82 750 -107 callgsubr
          200 -757 rmoveto
          -104 callgsubr
          endchar
        </CharString>
        <CharString name="Acircumflex.ss01">
          -77 callsubr
          54 128 -31 callgsubr
          91 750 -107 callgsubr
          168 -757 rmoveto
          -106 callgsubr
          endchar
        </CharString>
        <CharString name="Adieresis">
          -79 callsubr
          84 90 hstem
          73 88 75 88 vstem
          73 772 -89 callsubr
          46 -862 rmoveto
          -104 callgsubr
          endchar
        </CharString>
        <CharString name="Adieresis.ss01">
          -77 callsubr
          77 90 hstemhm
          39 104 -62 88 75 88 -73 104 138 callgsubr
          81 773 -89 callsubr
          hintmask 11111001
          15 -863 rmoveto
          -106 callgsubr
          endchar
        </CharString>
        <CharString name="Agrave">
          -79 callsubr
          61 144 hstem
          10 377 vstem
          161 749 -90 callgsubr
          169 -888 rmoveto
          -104 callgsubr
          endchar
        </CharString>
        <CharString name="Agrave.ss01">
          -77 callsubr
          54 144 -31 callgsubr
          170 750 -90 callgsubr
          137 -889 rmoveto
          -106 callgsubr
          endchar
        </CharString>
        <CharString name="Amacron">
          -79 callsubr
          109 91 hstem
          117 165 vstem
          117 797 -50 callgsubr
          165 -888 rmoveto
          -104 callgsubr
          endchar
        </CharString>
        <CharString name="Amacron.ss01">
          -77 callsubr
          101 91 hstemhm
          39 104 -24 165 -25 104 99 callsubr
          119 797 -50 callgsubr
          hintmask 11111010
          140 -888 rmoveto
          -106 callgsubr
          endchar
        </CharString>
        <CharString name="Aogonek">
          88 -196 58 159 -72 callgsubr
          hstem
          228 75 vstem
          303 -97 rmoveto
          34 26 42 20 21 vhcurveto
          38 hlineto
          -112 688 rlineto
          -153 hlineto
          -112 -688 rlineto
          104 hlineto
          26 163 rlineto
          116 hlineto
          25 -161 rlineto
          -30 -32 -23 -45 -37 vvcurveto
          -46 22 -38 64 16 14 1 2 10 vhcurveto
          -2 callsubr
          hvcurveto
          -155 352 rmoveto
          46 317 rlineto
          7 hlineto
          47 -317 rlineto
          endchar
        </CharString>
        <CharString name="Aogonek.ss01">
          93 -196 58 159 -69 callgsubr
          hstemhm
          39 104 63 76 -23 104 hintmask 11111010
          363 hmoveto
          387 vlineto
          -55 callgsubr
          -56 callsubr
          vhcurveto
          -387 104 216 116 -215 vlineto
          hintmask 11111100
          -30 -31 -23 -45 -37 vvcurveto
          -46 23 -38 64 15 110 callsubr
          -2 callsubr
          35 26 41 20 21 hvcurveto
          -185 311 rmoveto
          120 vlineto
          150 3 20 55 vhcurveto
          hintmask 11111010
          55 3 -20 -150 hvcurveto
          -120 vlineto
          endchar
        </CharString>
        <CharString name="Aring">
          88 21 -13 callsubr
          554 54 hstem
          93 68 76 67 vstem
          278 682 -42 callsubr
        </CharString>
        <CharString name="Aring.ss01">
          -77 callsubr
          38 55 90 54 hstemhm
          39 104 -44 69 76 67 -52 104 -40 callgsubr
          hintmask 1111101100000000
          206 734 -83 callsubr
          hintmask 1111110010000000
          53 -789 rmoveto
          -106 callgsubr
          endchar
        </CharString>
        <CharString name="Aringacute">
          88 21 -13 callsubr
          554 54 56 144 hstem
          93 68 76 67 vstem
          292 1058 -55 callsubr
          34 -237 -42 callsubr
        </CharString>
        <CharString name="Aringacute.ss01">
          -77 callsubr
          35 55 90 54 26 94 callgsubr
          -49 69 76 67 -47 104 -40 callgsubr
          hintmask 1111110110000000
          169 956 -101 callgsubr
          32 -230 rmoveto
          100 5 31 68 hvcurveto
          hintmask 1111100110000000
          69 -5 31 -100 -101 -6 -31 -69 vhcurveto
          hintmask 1111110110000000
          116 callgsubr
          hintmask 1111100110000000
          36 2 10 36 35 3 -10 -36 vhcurveto
          hintmask 1111110110000000
          -36 -3 -8 -35 vhcurveto
          hintmask 1111101001000000
          58 -786 rmoveto
          -106 callgsubr
          endchar
        </CharString>
        <CharString name="Atilde">
          -79 callsubr
          62 -77 callgsubr
          71 61 133 60 hintmask 11101110
          325 879 rmoveto
          -97 callsubr
          hintmask 11110110
          -103 callgsubr
          hintmask 11101110
          -94 callgsubr
          -43 -879 rmoveto
          -104 callgsubr
          endchar
        </CharString>
        <CharString name="Atilde.ss01">
          -77 callsubr
          54 -77 callgsubr
          39 104 -64 61 119 104 -90 61 callgsubr
          hintmask 1110110010000000
          333 879 rmoveto
          -97 callsubr
          hintmask 1111001100000000
          -103 callgsubr
          -27 callgsubr
          hintmask 1110010100000000
          -74 -879 rmoveto
          -106 callgsubr
          endchar
        </CharString>
        <CharString name="B">
          77 0 95 207 92 199 95 hstemhm
          44 102 109 100 -99 104 hintmask 11110100
          44 hmoveto
          166 hlineto
          115 35 73 110 100 -23 51 -64 15 hvcurveto
          4 vlineto
          hintmask 11111000
          56 16 26 50 96 vvcurveto
          115 -45 58 -99 vhcurveto
          -167 hlineto
          148 -294 rmoveto
          -46 199 46 hlineto
          53 10 -19 -80 -78 -19 -22 -44 hvcurveto
          hintmask 11110100
          -299 vmoveto
          -46 207 46 hlineto
          48 16 -19 -84 -83 -11 -21 -53 hvcurveto
          endchar
        </CharString>
        <CharString name="C">
          -8 -61 callgsubr
          hstem
          32 104 vstem
          281 7 -86 callgsubr
        </CharString>
        <CharString name="Cacute">
          -8 -61 callgsubr
          48 144 hstem
          32 104 vstem
          117 744 -101 callgsubr
          164 -742 -86 callgsubr
        </CharString>
        <CharString name="Cacute.loclPLK">
          -8 -61 callgsubr
          48 144 hstem
          32 104 vstem
          117 744 -73 callsubr
          164 -742 -86 callgsubr
        </CharString>
        <CharString name="Ccaron">
          -8 -61 callgsubr
          64 128 hstem
          32 104 vstem
          100 760 -99 callgsubr
          245 -874 -86 callgsubr
        </CharString>
        <CharString name="Ccedilla">
          -8 -61 callgsubr
          hstem
          32 104 vstem
          215 87 rmoveto
          -74 -5 23 234 234 5 23 74 19 27 -3 -4 18 hvcurveto
          88 vlineto
          8 -15 -35 6 -32 hhcurveto
          -143 -22 -73 -279 -219 12 -92 75 -29 hvcurveto
          -59 -188 rlineto
          -5 86 vlineto
          35 181 rlineto
          16 hlineto
          27 36 6 9 21 hvcurveto
          87 vlineto
          73 callgsubr
          endchar
        </CharString>
        <CharString name="Ccircumflex">
          -8 -61 callgsubr
          64 128 hstem
          32 104 vstem
          35 760 -107 callgsubr
          246 -760 -86 callgsubr
        </CharString>
        <CharString name="Cdotaccent">
          -8 -61 callgsubr
          89 90 hstemhm
          32 104 -29 87 137 callsubr
          107 785 -6 callgsubr
          174 -868 rmoveto
          87 vlineto
          hintmask 11110000
          73 callgsubr
          -74 -5 23 234 234 5 23 74 19 27 -3 -4 18 hvcurveto
          88 vlineto
          8 -15 -35 6 -32 hhcurveto
          -143 -22 -73 -279 -280 19 -72 146 hvcurveto
          hintmask 11101000
          27 36 6 9 21 hvcurveto
          endchar
        </CharString>
        <CharString name="D">
          82 111 callgsubr
          hstem
          96 callsubr
          vstem
          44 hmoveto
          149 hlineto
          159 7 72 272 273 -7 71 -159 hvcurveto
          45 callsubr
          endchar
        </CharString>
        <CharString name="Dcaron">
          82 111 callgsubr
          72 128 hstem
          96 callsubr
          vstem
          145 760 -99 callgsubr
          -37 -881 rmoveto
          149 hlineto
          159 7 72 272 273 -7 71 -159 hvcurveto
          45 callsubr
          endchar
        </CharString>
        <CharString name="Dcroat">
          -34 callsubr
        </CharString>
        <CharString name="E">
          -65 callsubr
          hstem
          44 104 vstem
          44 hmoveto
          -93 callsubr
          endchar
        </CharString>
        <CharString name="Eacute">
          -65 callsubr
          62 144 hstem
          44 104 vstem
          132 750 -101 callgsubr
          -88 -755 rmoveto
          -93 callsubr
          endchar
        </CharString>
        <CharString name="Ebreve">
          -65 callsubr
          67 60 hstemhm
          44 104 -89 65 92 65 hintmask 11111010
          281 888 rmoveto
          -65 hlineto
          -45 0 -28 -46 vhcurveto
          hintmask 11110110
          -45 -1 28 45 hvcurveto
          -65 hlineto
          -77 11 -56 100 vhcurveto
          hintmask 11111010
          101 10 56 77 hvcurveto
          -237 -888 rmoveto
          -93 callsubr
          endchar
        </CharString>
        <CharString name="Ecaron">
          -65 callsubr
          72 128 hstem
          44 104 vstem
          120 760 -99 callgsubr
          -12 -881 rmoveto
          -93 callsubr
          endchar
        </CharString>
        <CharString name="Ecircumflex">
          -65 callsubr
          62 128 hstem
          44 104 vstem
          56 750 -107 callgsubr
          -12 -757 rmoveto
          -93 callsubr
          endchar
        </CharString>
        <CharString name="Edieresis">
          -65 callsubr
          84 90 hstemhm
          44 104 -101 88 75 88 138 callgsubr
          47 772 -89 callsubr
          hintmask 11111010
          -166 -862 rmoveto
          -93 callsubr
          endchar
        </CharString>
        <CharString name="Edotaccent">
          -65 callsubr
          97 90 hstemhm
          44 104 -21 87 99 callsubr
          127 785 -6 callgsubr
          hintmask 11111000
          -83 -875 rmoveto
          -93 callsubr
          endchar
        </CharString>
        <CharString name="Egrave">
          -65 callsubr
          62 144 hstem
          44 104 vstem
          142 750 -90 callgsubr
          -50 -889 rmoveto
          -93 callsubr
          endchar
        </CharString>
        <CharString name="Emacron">
          -65 callsubr
          109 91 hstemhm
          44 104 -60 165 99 callsubr
          88 797 -50 callgsubr
          hintmask 11111000
          -44 -888 rmoveto
          -93 callsubr
          endchar
        </CharString>
        <CharString name="Eng">
          44 callsubr
          -394 -5 vlineto
          -124 394 rlineto
          -98 -688 99 421 4 hlineto
          125 -390 rlineto
          -98 vlineto
          -39 -1 -14 -49 vhcurveto
          -75 vlineto
          108 37 12 140 3 hvcurveto
          731 vlineto
          endchar
        </CharString>
        <CharString name="Eogonek">
          14 -196 58 138 95 205 95 198 95 hstemhm
          44 104 16 76 hintmask 00000000
          hintmask 11111100
          252 -196 rmoveto
          14 139 callgsubr
          hvcurveto
          89 callgsubr
          -8 19 19 hvcurveto
          hintmask 11111000
          41 37 41 21 18 vhcurveto
          95 -150 205 132 95 -132 198 150 95 -254 -688 vlineto
          hintmask 11111100
          184 hlineto
          -36 -31 -28 -41 -45 vvcurveto
          -40 23 -39 65 vhcurveto
          endchar
        </CharString>
        <CharString name="Eth">
          -34 callsubr
        </CharString>
        <CharString name="Euro">
          41 -8 95 153 59 94 58 150 95 hstem
          69 104 vstem
          234 -8 rmoveto
          28 36 6 9 21 hvcurveto
          87 vlineto
          -4 -17 -28 -3 -22 hhcurveto
          -62 -14 17 136 -3 hvcurveto
          115 59 -115 94 115 58 -115 hlineto
          134 3 14 16 62 hhcurveto
          19 27 -3 -4 19 hvcurveto
          88 vlineto
          8 -16 -35 6 -32 hhcurveto
          -123 -34 -53 -192 -7 hvcurveto
          -46 -58 45 -94 -45 -59 46 hlineto
          -195 6 32 -53 126 hhcurveto
          endchar
        </CharString>
        <CharString name="F">
          -6 21 -21 287 95 211 95 hstem
          44 104 vstem
          44 hmoveto
          104 287 122 95 -122 211 138 95 -242 hlineto
          endchar
        </CharString>
        <CharString name="G">
          -8 callsubr
          92 callgsubr
          256 293 -96 callgsubr
          endchar
        </CharString>
        <CharString name="G.ss01">
          -7 callgsubr
          91 callgsubr
          204 -8 -96 callsubr
          endchar
        </CharString>
        <CharString name="G_tilde.loclGUA">
          -8 callsubr
          63 -77 callgsubr
          32 103 -72 61 132 93 -92 61 callgsubr
          hintmask 1110110010000000
          317 23 callgsubr
          hintmask 1111001100000000
          -103 callgsubr
          -27 callgsubr
          hintmask 1111010100000000
          -61 -595 -96 callgsubr
          endchar
        </CharString>
        <CharString name="Gbreve">
          -8 callsubr
          59 60 hstemhm
          32 103 -56 65 92 65 -45 93 138 callgsubr
          301 20 callsubr
          -45 -595 -96 callgsubr
          endchar
        </CharString>
        <CharString name="Gbreve.ss01">
          -7 callgsubr
          59 60 hstemhm
          32 104 -53 65 92 65 -46 99 138 callgsubr
          305 20 callsubr
          -101 -896 -96 callsubr
          endchar
        </CharString>
        <CharString name="Gcaron">
          -8 callsubr
          64 128 92 callgsubr
          140 760 -99 callgsubr
          180 -588 -96 callgsubr
          endchar
        </CharString>
        <CharString name="Gcaron.ss01">
          -7 callgsubr
          64 128 91 callgsubr
          144 760 -99 callgsubr
          124 -889 -96 callsubr
          endchar
        </CharString>
        <CharString name="Gcircumflex">
          -8 callsubr
          64 128 92 callgsubr
          75 760 -107 callgsubr
          181 -474 -96 callgsubr
          endchar
        </CharString>
        <CharString name="Gcircumflex.ss01">
          -7 callgsubr
          64 128 91 callgsubr
          79 760 -107 callgsubr
          125 -775 -96 callsubr
          endchar
        </CharString>
        <CharString name="Gcommaaccent">
          73 -10 callsubr
          54 92 209 92 216 95 hstemhm
          32 103 9 104 8 93 hintmask 11111101
          256 293 -96 callgsubr
          hintmask 11111111
          -63 -506 -83 callgsubr
        </CharString>
        <CharString name="Gcommaaccent.ss01">
          80 -10 callsubr
          54 95 209 92 213 95 hstemhm
          32 104 12 104 7 99 hintmask 11111101
          204 -8 -96 callsubr
          hintmask 11111110
          -63 -205 -83 callgsubr
        </CharString>
        <CharString name="Gdotaccent">
          -8 callsubr
          89 90 hstemhm
          32 103 12 87 22 93 hintmask 00000000
          hintmask 11111110
          147 785 -6 callgsubr
          hintmask 11111010
          109 -582 -96 callgsubr
          endchar
        </CharString>
        <CharString name="Gdotaccent.ss01">
          -7 callgsubr
          89 90 hstemhm
          32 104 15 87 21 99 hintmask 00000000
          hintmask 11111110
          151 785 -6 callgsubr
          hintmask 11111010
          53 -883 -96 callsubr
          endchar
        </CharString>
        <CharString name="Gtilde.loclGUA.ss01">
          -7 callgsubr
          63 -77 callgsubr
          32 104 -69 61 131 99 -97 61 callgsubr
          hintmask 1110110010000000
          321 23 callgsubr
          hintmask 1111001100000000
          -103 callgsubr
          -27 callgsubr
          hintmask 1111010100000000
          -117 -896 -96 callsubr
          endchar
        </CharString>
        <CharString name="H">
          102 21 -21 297 100 291 -20 hstem
          44 104 115 104 vstem
          46 callgsubr
          endchar
        </CharString>
        <CharString name="Hbar">
          102 21 -21 267 100 117 96 -96 204 hstemhm
          44 104 115 104 hintmask 11011100
          263 688 rmoveto
          hintmask 11101100
          -108 -115 vlineto
          hintmask 11011100
          108 -104 -688 104 267 115 -267 104 688 vlineto
          -219 -321 rmoveto
          117 115 -117 vlineto
          endchar
        </CharString>
        <CharString name="Hcircumflex">
          102 21 -21 297 100 291 -20 92 128 hstem
          44 104 115 104 vstem
          89 760 -107 callgsubr
          174 -767 rmoveto
          62 callsubr
          endchar
        </CharString>
        <CharString name="I">
          -14 callgsubr
          hstem
          46 104 vstem
          46 hmoveto
          66 callsubr
          hlineto
          endchar
        </CharString>
        <CharString name="IJ">
          107 0 90 -69 -45 callsubr
          hstemhm
          46 104 123 105 hintmask 01111000
          46 hmoveto
          66 callsubr
          hlineto
          hintmask 10111000
          155 -598 -68 callgsubr
        </CharString>
        <CharString name="Iacute">
          99 callgsubr
          47 750 -101 callgsubr
          -1 -755 -23 callgsubr
        </CharString>
        <CharString name="Iacute_J.loclNLD">
          107 0 90 -69 -45 callsubr
          76 144 hstemhm
          46 104 123 105 hintmask 01111100
          64 744 -101 callgsubr
          227 -5 -101 callgsubr
          -245 -749 rmoveto
          66 callsubr
          hlineto
          hintmask 10111100
          155 -598 -68 callgsubr
        </CharString>
        <CharString name="Ibreve">
          -14 callgsubr
          87 60 hstemhm
          -14 65 -5 104 -7 65 99 callsubr
          208 -81 callgsubr
          hintmask 11101000
          -162 -888 -23 callgsubr
        </CharString>
        <CharString name="Icircumflex">
          -14 callgsubr
          82 128 hstem
          46 104 vstem
          -18 750 -107 callgsubr
          64 -757 -23 callgsubr
        </CharString>
        <CharString name="Idieresis">
          -14 callgsubr
          104 90 hstemhm
          -28 88 -14 104 -15 88 99 callsubr
          -28 772 -89 callsubr
          hintmask 11101000
          -89 -862 -23 callgsubr
        </CharString>
        <CharString name="Idotaccent">
          -14 callgsubr
          117 90 hstemhm
          46 104 -96 87 137 callsubr
          54 785 -6 callgsubr
          hintmask 11110000
          -8 -875 -23 callgsubr
        </CharString>
        <CharString name="Igrave">
          99 callgsubr
          70 750 -90 callgsubr
          24 -889 -23 callgsubr
        </CharString>
        <CharString name="Imacron">
          -14 callgsubr
          129 91 hstemhm
          15 165 -134 104 hintmask 00000000
          hintmask 11110000
          15 797 -50 callgsubr
          hintmask 11101000
          31 -888 -23 callgsubr
        </CharString>
        <CharString name="Iogonek">
          -113 -196 58 159 -45 callsubr
          hstemhm
          24 76 -54 104 hintmask 11101000
          111 -196 rmoveto
          15 139 callgsubr
          hvcurveto
          -2 callsubr
          35 30 44 20 18 hvcurveto
          688 -104 -688 vlineto
          hintmask 11110000
          34 hlineto
          -32 -31 -24 -44 -37 vvcurveto
          hintmask 11101000
          -46 23 -38 64 vhcurveto
          endchar
        </CharString>
        <CharString name="Itilde">
          -14 callgsubr
          91 -77 callgsubr
          -30 61 15 104 14 60 hintmask 00000000
          hintmask 11010110
          224 -19 callsubr
          -178 -888 -23 callgsubr
        </CharString>
        <CharString name="J">
          -88 0 90 598 -20 hstemhm
          77 105 hintmask 00000000
          hintmask 11100000
          5 90 -68 callgsubr
        </CharString>
        <CharString name="Jcircumflex">
          -88 0 90 -69 -45 callsubr
          92 128 hstemhm
          77 105 hintmask 01111000
          14 760 -107 callgsubr
          hintmask 10111000
          -9 -677 -68 callgsubr
        </CharString>
        <CharString name="K">
          74 21 -21 298 101 289 -20 hstem
          44 104 vstem
          11 callsubr
          endchar
        </CharString>
        <CharString name="Kcommaaccent">
          74 14 callgsubr
          298 101 289 -20 hstemhm
          44 104 -3 104 hintmask 11111100
          11 callsubr
          hintmask 11111010
          -49 -511 -83 callgsubr
        </CharString>
        <CharString name="L">
          -19 105 callgsubr
          vstem
          8 callgsubr
          endchar
        </CharString>
        <CharString name="Lacute">
          -19 0 96 592 -20 76 144 hstem
          44 104 vstem
          62 744 -101 callgsubr
          -18 -749 rmoveto
          240 96 -136 592 -104 hlineto
          endchar
        </CharString>
        <CharString name="Lcaron">
          -19 0 96 338 254 0 -20 hstemhm
          44 104 61 95 hintmask 10111000
          8 callgsubr
          hintmask 11011000
          151 -254 24 callgsubr
          endchar
        </CharString>
        <CharString name="Lcommaaccent">
          -19 -10 callsubr
          62 96 592 -20 hstemhm
          44 104 -46 104 hintmask 11111000
          8 callgsubr
          hintmask 11110100
          51 -901 -83 callgsubr
        </CharString>
        <CharString name="Ldot">
          -19 0 96 224 110 258 -20 hstem
          44 104 65 108 vstem
          8 callgsubr
          169 -368 -94 callsubr
        </CharString>
        <CharString name="Lslash">
          -19 105 callgsubr
          vstem
          148 96 rmoveto
          208 vlineto
          92 34 rlineto
          89 vlineto
          -92 -34 rlineto
          295 -104 -334 vlineto
          -37 -14 rlineto
          -90 vlineto
          37 14 rlineto
          -264 240 96 vlineto
          endchar
        </CharString>
        <CharString name="M">
          264 0 158 -137 -21 547 141 hstemhm
          44 98 287 101 hintmask 01111000
          429 hmoveto
          101 688 -158 hlineto
          hintmask 10111000
          -80 -530 rlineto
          -7 hlineto
          -80 530 rlineto
          -161 -688 98 547 7 hlineto
          82 -547 rlineto
          108 hlineto
          83 547 rlineto
          7 hlineto
          endchar
        </CharString>
        <CharString name="N">
          105 21 -21 688 -20 128 callsubr
          33 callsubr
          endchar
        </CharString>
        <CharString name="Nacute">
          105 -63 callgsubr
          76 144 128 callsubr
          173 744 -101 callgsubr
          104 -749 rmoveto
          -73 callgsubr
          endchar
        </CharString>
        <CharString name="Nacute.loclPLK">
          105 -63 callgsubr
          76 144 128 callsubr
          173 744 -73 callsubr
          104 -749 rmoveto
          -73 callgsubr
          endchar
        </CharString>
        <CharString name="Ncaron">
          105 -63 callgsubr
          92 128 128 callsubr
          156 760 -99 callgsubr
          185 -881 rmoveto
          -73 callgsubr
          endchar
        </CharString>
        <CharString name="Ncommaaccent">
          105 14 callgsubr
          688 -20 hstemhm
          44 99 17 104 7 99 hintmask 11111010
          33 callsubr
          hintmask 11111100
          6 -634 -83 callgsubr
        </CharString>
        <CharString name="Ntilde">
          105 -63 callgsubr
          82 -77 callgsubr
          44 99 -63 61 130 99 -96 60 hintmask 00000000
          hintmask 11011001
          334 879 -16 callgsubr
          -57 -879 rmoveto
          -73 callgsubr
          endchar
        </CharString>
        <CharString name="O">
          90 -61 callgsubr
          43 callsubr
          200 -8 -106 callsubr
          endchar
        </CharString>
        <CharString name="OE">
          251 0 95 205 95 198 95 43 callsubr
          200 hmoveto
          335 95 -148 hlineto
          -20 -20 -2 -1 -10 hvcurveto
          24 35 5 65 1 108 rrcurveto
          149 95 -150 hlineto
          -1 104 -6 63 -22 35 rrcurveto
          -2 12 22 -2 16 hhcurveto
          148 95 -335 hlineto
          -161 -7 -71 -273 -272 7 -72 161 hvcurveto
          95 vmoveto
          -56 -8 8 241 241 8 8 56 65 callgsubr
          -241 -8 -8 -55 hvcurveto
          endchar
        </CharString>
        <CharString name="Oacute">
          90 -61 callgsubr
          54 144 43 callsubr
          156 750 -101 callgsubr
          44 -763 -106 callsubr
          endchar
        </CharString>
        <CharString name="Oacute.loclPLK">
          90 -61 callgsubr
          48 144 43 callsubr
          165 744 -73 callsubr
          35 -757 -106 callsubr
          endchar
        </CharString>
        <CharString name="Obreve">
          90 -61 callgsubr
          59 60 hstemhm
          32 104 -49 65 92 65 -46 104 hintmask 00000000
          hintmask 11101100
          21 callgsubr
          hintmask 11110010
          -109 -896 -106 callsubr
          endchar
        </CharString>
        <CharString name="Ocircumflex">
          90 -61 callgsubr
          54 128 43 callsubr
          84 750 -107 callgsubr
          116 -765 -106 callsubr
          endchar
        </CharString>
        <CharString name="Odieresis">
          90 -61 callgsubr
          76 90 hstemhm
          32 104 -62 88 75 88 -62 104 hintmask 00000000
          hintmask 11101100
          74 772 -89 callsubr
          hintmask 11110010
          -37 -870 -106 callsubr
          endchar
        </CharString>
        <CharString name="Ograve">
          90 -61 callgsubr
          54 144 43 callsubr
          161 750 -90 callgsubr
          87 -897 -106 callsubr
          endchar
        </CharString>
        <CharString name="Ohorn">
          90 -61 callgsubr
          -8 -20 118 callgsubr
          -37 66 hintmask 00000000
          hintmask 10110100
          330 134 callsubr
          -15 hlineto
          hintmask 11011000
          -63 callsubr
          hvcurveto
          hintmask 10111000
          75 callgsubr
          vhcurveto
          hintmask 10110100
          19 callsubr
          hintmask 11011000
          -196 -692 -71 callgsubr
        </CharString>
        <CharString name="Ohungarumlaut">
          90 -61 callgsubr
          61 116 43 callsubr
          118 757 -82 callsubr
          -31 -770 -106 callsubr
          endchar
        </CharString>
        <CharString name="Omacron">
          90 -61 callgsubr
          101 91 hstemhm
          32 104 -19 165 -19 104 137 callsubr
          117 797 -50 callgsubr
          hintmask 11110100
          83 -896 -106 callsubr
          endchar
        </CharString>
        <CharString name="Oslash">
          136 callgsubr
          118 callgsubr
          hintmask 00000000
          hintmask 10011100
          367 743 rmoveto
          -89 hlineto
          -17 -52 rlineto
          hintmask 01101100
          22 callsubr
          hintmask 10011100
          14 callsubr
          hintmask 10101100
          249 8 8 56 55 8 -8 -249 vhcurveto
          hintmask 10011100
          -249 -8 -8 -55 vhcurveto
          endchar
        </CharString>
        <CharString name="Oslashacute">
          136 callgsubr
          73 144 118 callgsubr
          hintmask 10101110
          263 883 -55 callsubr
          hintmask 10011110
          152 -1 rmoveto
          -89 hlineto
          -17 -52 rlineto
          hintmask 01101110
          22 callsubr
          hintmask 10011110
          14 callsubr
          hintmask 10101110
          249 8 8 56 55 8 -8 -249 vhcurveto
          hintmask 10011110
          -249 -8 -8 -55 vhcurveto
          endchar
        </CharString>
        <CharString name="Otilde">
          90 -61 callgsubr
          53 -77 callgsubr
          32 104 -63 61 129 104 -100 60 hintmask 00000000
          hintmask 11011001
          327 878 -16 callgsubr
          -127 -886 -106 callsubr
          endchar
        </CharString>
        <CharString name="P">
          66 21 -21 233 95 265 95 hstem
          44 104 108 104 vstem
          44 hmoveto
          104 233 86 callsubr
          -168 hlineto
          104 -360 84 callsubr
        </CharString>
        <CharString name="Q">
          90 -61 callgsubr
          43 callsubr
          292 -115 rmoveto
          107 4 hlineto
          -76 143 rlineto
          41 46 3 94 172 vvcurveto
          280 -7 72 -160 -161 -7 -72 -280 -279 7 -73 161 14 12 1 3 10 vhcurveto
          -36 91 -71 callgsubr
        </CharString>
        <CharString name="R">
          25 callsubr
          90 callgsubr
          377 hmoveto
          -85 callsubr
        </CharString>
        <CharString name="R.ss01">
          24 callsubr
          1 callgsubr
          hintmask 00000000
          hintmask 11111000
          355 175 rmoveto
          hintmask 11110100
          -82 callgsubr
          hintmask 11111000
          -37 callsubr
          hintmask 11110100
          -58 callgsubr
          endchar
        </CharString>
        <CharString name="Racute">
          25 callsubr
          56 144 90 callgsubr
          291 883 -55 callsubr
          134 -744 rmoveto
          -85 callsubr
        </CharString>
        <CharString name="Racute.ss01">
          24 callsubr
          56 144 1 callgsubr
          hintmask 11111010
          290 883 -55 callsubr
          hintmask 11111100
          113 -569 -76 callsubr
        </CharString>
        <CharString name="Rcaron">
          25 callsubr
          72 128 90 callgsubr
          248 760 5 callgsubr
          230 -760 rmoveto
          -85 callsubr
        </CharString>
        <CharString name="Rcaron.ss01">
          24 callsubr
          72 128 1 callgsubr
          hintmask 11111010
          247 760 5 callgsubr
          hintmask 11111100
          209 -585 -76 callsubr
        </CharString>
        <CharString name="Rcommaaccent">
          86 -259 46 68 83 83 42 callsubr
          hstemhm
          44 104 3 104 4 104 hintmask 11111101
          -18 callsubr
          hintmask 11111010
          -50 -490 50 callgsubr
        </CharString>
        <CharString name="Rcommaaccent.ss01">
          86 -259 46 68 83 83 43 callgsubr
          hstemhm
          44 104 3 104 2.5 103 -101.5 104 -40 callgsubr
          hintmask 1111110100000000
          355 175 rmoveto
          hintmask 1111110010000000
          -82 callgsubr
          hintmask 1111110100000000
          -37 callsubr
          hintmask 1111110010000000
          -58 callgsubr
          hintmask 1111101000000000
          -50 -495 50 callgsubr
        </CharString>
        <CharString name="S">
          35 -61 callgsubr
          120 callgsubr
          -58 callsubr
          endchar
        </CharString>
        <CharString name="Sacute">
          35 -61 callgsubr
          48 144 120 callgsubr
          138 744 -101 callgsubr
          28 -757 -102 callsubr
          endchar
        </CharString>
        <CharString name="Sacute.loclPLK">
          35 -61 callgsubr
          48 144 120 callgsubr
          138 744 -73 callsubr
          28 -757 -102 callsubr
          endchar
        </CharString>
        <CharString name="Scaron">
          35 -61 callgsubr
          54 128 120 callgsubr
          123 750 -99 callgsubr
          107 -879 -102 callsubr
          endchar
        </CharString>
        <CharString name="Scedilla">
          35 -7 94 -5 callsubr
          120 callgsubr
          324 209 rmoveto
          54 -3 35 -7 23 vhcurveto
          -16 50 -32 11 -32 8 -68 16 rcurveline
          -34 8 -5 11 74 vvcurveto
          36 2 25 11 18 vhcurveto
          16 11 21 7 43 hhcurveto
          44 37 -5 -2 7 hvcurveto
          87 vlineto
          2 -3 -47 13 -68 hhcurveto
          -107 -55 -42 -157 -100 8 -64 53 -12 hvcurveto
          79 -18 rlineto
          54 -12 3 -8 -93 vvcurveto
          -41 -3 -30 -13 -14 vhcurveto
          -15 -14 -19 -3 -34 hhcurveto
          -24 -42 4 4 -39 hvcurveto
          -87 vlineto
          28 -7 40 -6 37 113 callsubr
          85 10 36 52 153 vvcurveto
          endchar
        </CharString>
        <CharString name="Scircumflex">
          35 -61 callgsubr
          64 128 120 callgsubr
          57 760 -107 callgsubr
          109 -775 -102 callsubr
          endchar
        </CharString>
        <CharString name="Scommaaccent">
          35 -10 callsubr
          54 -39 callgsubr
          hstemhm
          23 104 -1 104 -10 104 hintmask 11111010
          -58 callsubr
          hintmask 11110100
          -47 -205 -83 callgsubr
        </CharString>
        <CharString name="T">
          18 21 88 callsubr
          111 hmoveto
          35 callsubr
          endchar
        </CharString>
        <CharString name="Tbar">
          18 21 -21 313 84 195 96 hstem
          111 105 vstem
          319 592 rmoveto
          96 -311 -96 103 -195 -74 -84 74 -313 105 313 73 84 -73 195 vlineto
          endchar
        </CharString>
        <CharString name="Tcaron">
          18 21 -21 592 96 72 128 hstem
          111 105 vstem
          112 760 -99 callgsubr
          63 -881 rmoveto
          35 callsubr
          endchar
        </CharString>
        <CharString name="Thorn">
          66 21 -21 124 95 265 95 109 -20 hstem
          44 104 108 104 vstem
          44 hmoveto
          104 124 86 callsubr
          -64 109 -104 hlineto
          104 -469 84 callsubr
        </CharString>
        <CharString name="U">
          -33 callsubr
          -31 callgsubr
          259 688 -100 callsubr
        </CharString>
        <CharString name="Uacute">
          -33 callsubr
          82 144 -31 callgsubr
          160 750 -101 callgsubr
          99 -67 -100 callsubr
        </CharString>
        <CharString name="Ubreve">
          -33 callsubr
          87 60 hstemhm
          39 104 -54 65 92 65 -52 104 hintmask 00000000
          hintmask 11101100
          311 -81 callgsubr
          hintmask 11110010
          -52 -200 -100 callsubr
        </CharString>
        <CharString name="Ucircumflex">
          -33 callsubr
          82 128 -31 callgsubr
          85 750 -107 callgsubr
          174 -69 -100 callsubr
        </CharString>
        <CharString name="Udieresis">
          -33 callsubr
          104 90 7 callgsubr
          hintmask 11101100
          76 772 -89 callsubr
          hintmask 11110010
          20 -174 -100 callsubr
        </CharString>
        <CharString name="Ugrave">
          -33 callsubr
          82 144 -31 callgsubr
          166 750 -90 callgsubr
          141 -201 -100 callsubr
        </CharString>
        <CharString name="Uhorn">
          41 callgsubr
          hstemhm
          28 callsubr
          -9 66 hintmask 00000000
          hintmask 10110100
          114 callgsubr
          hintmask 10111000
          -53 -431 hlineto
          -101 callsubr
          hintmask 11011000
          342 vlineto
          hintmask 10110100
          49 -22 callsubr
          endchar
        </CharString>
        <CharString name="Uhungarumlaut">
          -33 callsubr
          89 116 -31 callgsubr
          120 757 -82 callsubr
          26 -74 -100 callsubr
        </CharString>
        <CharString name="Umacron">
          -33 callsubr
          129 91 hstemhm
          39 104 -24 165 -25 104 137 callsubr
          119 797 -50 callgsubr
          hintmask 11110100
          140 -200 -100 callsubr
        </CharString>
        <CharString name="Uogonek">
          93 111 callsubr
          95 601 -20 hstemhm
          39 104 32 76 8 9 callsubr
          vhcurveto
          hintmask 11111100
          17 hlineto
          -26 -32 -17 -39 -33 vvcurveto
          -46 23 -38 64 15 14 39 callgsubr
          -7 19 22 50 30 43 30 22 hvcurveto
          hintmask 11110100
          50 37 2 85 161 vvcurveto
          387 vlineto
          endchar
        </CharString>
        <CharString name="Uring">
          -33 callsubr
          63 55 90 54 hstemhm
          39 104 -49 69 76 67 -47 104 138 callgsubr
          201 731 -83 callsubr
          hintmask 11111001
          58 -98 -100 callsubr
        </CharString>
        <CharString name="Utilde">
          -33 callsubr
          91 -77 callgsubr
          39 104 -69 61 124 104 -95 60 hintmask 00000000
          hintmask 11011001
          328 23 callgsubr
          hintmask 11101010
          9 -22 -25 10 -26 hhcurveto
          -57 -4 -39 -78 hvcurveto
          hintmask 11100110
          61 hlineto
          31 1 14 15 -69 callsubr
          vhcurveto
          hintmask 11011001
          -94 callgsubr
          hintmask 11101010
          -69 -200 -100 callsubr
        </CharString>
        <CharString name="V">
          65 0 118 570 -20 hstem
          7 360 vstem
          110 hmoveto
          154 hlineto
          103 688 rlineto
          -102 hlineto
          -71 -570 rlineto
          -9 hlineto
          -73 570 rlineto
          -105 hlineto
          endchar
        </CharString>
        <CharString name="W">
          7 callsubr
          hstemhm
          11 573 hintmask 10110000
          362 hmoveto
          -81 callsubr
          hintmask 11010000
          60 callsubr
        </CharString>
        <CharString name="Wacute">
          7 callsubr
          76 144 hstemhm
          11 573 hintmask 10111000
          264 744 -101 callgsubr
          98 -749 rmoveto
          -81 callsubr
          hintmask 11011000
          60 callsubr
        </CharString>
        <CharString name="Wcircumflex">
          7 callsubr
          92 128 hstemhm
          11 573 hintmask 10111000
          182 760 -107 callgsubr
          180 -767 rmoveto
          -81 callsubr
          hintmask 11011000
          60 callsubr
        </CharString>
        <CharString name="Wdieresis">
          7 callsubr
          117 90 hstemhm
          172 88 75 88 hintmask 10111100
          172 785 -89 callsubr
          27 -875 rmoveto
          -81 callsubr
          hintmask 11011100
          60 callsubr
        </CharString>
        <CharString name="Wgrave">
          7 callsubr
          76 144 hstemhm
          11 573 hintmask 10111000
          258 744 -90 callgsubr
          152 -883 rmoveto
          -81 callsubr
          hintmask 11011000
          60 callsubr
        </CharString>
        <CharString name="X">
          84 118 callsubr
          9 374 vstem
          275 hmoveto
          108 hlineto
          -110 349 108 339 rlineto
          -105 hlineto
          -75 -262 rlineto
          -7 hlineto
          -75 262 rlineto
          -19 callgsubr
          108 -342 -110 -346 rlineto
          105 hlineto
          77 271 rlineto
          7 hlineto
          endchar
        </CharString>
        <CharString name="Y">
          48 118 callsubr
          126 105 vstem
          126 hmoveto
          -87 callgsubr
          endchar
        </CharString>
        <CharString name="Y.loclGUA">
          50 -63 callgsubr
          hstemhm
          18 104 4 105 6 105 hintmask 11101000
          237 688 -80 callsubr
          hintmask 11010000
          -50 callsubr
          hintmask 11101000
          5 callsubr
        </CharString>
        <CharString name="Yacute">
          55 callsubr
          82 144 hstem
          126 105 vstem
          141 750 -101 callgsubr
          -15 -755 rmoveto
          -87 callgsubr
          endchar
        </CharString>
        <CharString name="Yacute.loclGUA">
          50 -63 callgsubr
          76 144 52 callgsubr
          272 883 -55 callsubr
          13 -56 -74 callgsubr
          endchar
        </CharString>
        <CharString name="Ycircumflex">
          55 callsubr
          92 128 hstem
          126 105 vstem
          63 760 -107 callgsubr
          63 -767 rmoveto
          -87 callgsubr
          endchar
        </CharString>
        <CharString name="Ycircumflex.loclGUA">
          50 -63 callgsubr
          92 128 52 callgsubr
          179 836 -62 callgsubr
          104 -72 -74 callgsubr
          endchar
        </CharString>
        <CharString name="Ydieresis">
          55 callsubr
          104 90 hstemhm
          56 88 -18 105 -12 88 99 callsubr
          56 772 -89 callsubr
          hintmask 11101000
          -93 -862 rmoveto
          -87 callgsubr
          endchar
        </CharString>
        <CharString name="Ydieresis.loclGUA">
          50 -63 callgsubr
          117 90 hstemhm
          18 104 -68 88 -16 105 -14 88 -68 105 hintmask 00000000
          hintmask 11101010
          142 875 39 callsubr
          hintmask 11110001
          -68 -97 -80 callsubr
          hintmask 11100100
          -50 callsubr
          hintmask 11110001
          5 callsubr
        </CharString>
        <CharString name="Ygrave">
          55 callsubr
          76 144 hstem
          126 105 vstem
          139 744 -90 callgsubr
          35 -883 rmoveto
          -87 callgsubr
          endchar
        </CharString>
        <CharString name="Ygrave.loclGUA">
          50 -63 callgsubr
          76 144 52 callgsubr
          219 744 -47 callsubr
          97 -56 -74 callgsubr
          endchar
        </CharString>
        <CharString name="Z">
          93 callgsubr
          40 callsubr
          hintmask 11100000
          21 hmoveto
          293 95 -183 hlineto
          hintmask 11010000
          -35 callgsubr
          hintmask 11100000
          -181 -504 rlineto
          endchar
        </CharString>
        <CharString name="Zacute">
          93 callgsubr
          56 144 40 callsubr
          hintmask 11110000
          134 744 -101 callgsubr
          -113 -749 -46 callsubr
        </CharString>
        <CharString name="Zacute.loclPLK">
          93 callgsubr
          56 144 40 callsubr
          hintmask 11110000
          134 744 -73 callsubr
          -113 -749 -46 callsubr
        </CharString>
        <CharString name="Zcaron">
          93 callgsubr
          63 128 40 callsubr
          hintmask 11110000
          122 751 -99 callgsubr
          -37 -872 -46 callsubr
        </CharString>
        <CharString name="Zdotaccent">
          93 callgsubr
          97 90 40 callsubr
          -187 87 hintmask 11100100
          124 785 -6 callgsubr
          hintmask 11110000
          -103 -875 -46 callsubr
        </CharString>
        <CharString name="a">
          -89 callgsubr
          95 callgsubr
          hintmask 00000000
          hintmask 10011110
          126 -8 rmoveto
          hintmask 00111110
          -78 callsubr
          hintmask 01011110
          -107 callsubr
          hintmask 10011110
          -56 callgsubr
          hintmask 01011110
          -103 callsubr
          endchar
        </CharString>
        <CharString name="aacute">
          -89 callgsubr
          81 144 63 callgsubr
          136 -84 callgsubr
          hintmask 10011111
          -10 -612 rmoveto
          hintmask 00111111
          -78 callsubr
          hintmask 01011111
          -107 callsubr
          hintmask 10011111
          -56 callgsubr
          hintmask 01011111
          -103 callsubr
          endchar
        </CharString>
        <CharString name="abreve">
          -89 callgsubr
          92 60 hstemhm
          19 93 -47 65 88 98 -94 65 -40 callgsubr
          hintmask 0101110101000000
          287 -65 callgsubr
          hintmask 1001111010000000
          -161 -751 rmoveto
          hintmask 0011111010000000
          -78 callsubr
          hintmask 0101111010000000
          -107 callsubr
          hintmask 1001111010000000
          -56 callgsubr
          hintmask 0101111010000000
          -103 callsubr
          endchar
        </CharString>
        <CharString name="acircumflex">
          -89 callgsubr
          97 128 63 callgsubr
          62 615 -107 callgsubr
          hintmask 10011111
          64 -630 rmoveto
          hintmask 00111111
          -78 callsubr
          hintmask 01011111
          -107 callsubr
          hintmask 10011111
          -56 callgsubr
          hintmask 01011111
          -103 callsubr
          endchar
        </CharString>
        <CharString name="acute">
          109 callgsubr
          127 vstem
          -2 -84 callgsubr
          endchar
        </CharString>
        <CharString name="acute.case.loclPLK">
          -186 744 144 hstem
          -2 109 vstem
          -2 744 -73 callsubr
          endchar
        </CharString>
        <CharString name="acute.loclPLK">
          109 callgsubr
          109 vstem
          -2 599 -73 callsubr
          endchar
        </CharString>
        <CharString name="acutecomb">
          599 72 callgsubr
          -125 -84 callgsubr
          endchar
        </CharString>
        <CharString name="acutecomb.case">
          744 72 callgsubr
          -125 744 -101 callgsubr
          endchar
        </CharString>
        <CharString name="adieresis">
          -89 callgsubr
          124 90 hstemhm
          19 93 -59 88 75 88 -86 98 hintmask 0101110101000000
          53 642 rmoveto
          88 90 -88 hlineto
          hintmask 0101110110000000
          163 -90 rmoveto
          88 90 -88 hlineto
          hintmask 1001111001000000
          -90 -740 rmoveto
          hintmask 0011110101000000
          -78 callsubr
          hintmask 0101111001000000
          -107 callsubr
          hintmask 1001111001000000
          -56 callgsubr
          hintmask 0101111001000000
          -103 callsubr
          endchar
        </CharString>
        <CharString name="ae">
          135 callgsubr
          hstem
          19 94 105 98 106 91 vstem
          513 257 -75 callsubr
        </CharString>
        <CharString name="aeacute">
          135 callgsubr
          81 144 hstem
          19 94 105 98 106 91 vstem
          357 738 -55 callsubr
          204 -342 -75 callsubr
        </CharString>
        <CharString name="agrave">
          -89 callgsubr
          81 144 63 callgsubr
          141 599 -90 callgsubr
          hintmask 10011111
          33 -746 rmoveto
          hintmask 00111111
          -78 callsubr
          hintmask 01011111
          -107 callsubr
          hintmask 10011111
          -56 callgsubr
          hintmask 01011111
          -103 callsubr
          endchar
        </CharString>
        <CharString name="amacron">
          -89 callgsubr
          134 91 hstemhm
          19 93 -18 165 -41 56 callgsubr
          hintmask 0101110100000000
          94 652 -50 callgsubr
          hintmask 1001111010000000
          32 -751 rmoveto
          hintmask 0011111010000000
          -78 callsubr
          hintmask 0101111010000000
          -107 callsubr
          hintmask 1001111010000000
          -56 callgsubr
          hintmask 0101111010000000
          -103 callsubr
          endchar
        </CharString>
        <CharString name="ampersand">
          120 -8 87 226 87 219 85 hstemhm
          34 97 -92 99 -22 104 40 98 hintmask 11110010
          260 392 rmoveto
          -312 vlineto
          -1 -10 -11 0 -9 hhcurveto
          -76 -23 11 100 87 12 28 54 hvcurveto
          hintmask 11100110
          23 87 hlineto
          hintmask 11101010
          -23 hlineto
          -54 -5 41 67 93 12 18 100 32 45 -4 -5 30 hvcurveto
          78 vlineto
          9 -41 -58 7 -41 hhcurveto
          -122 -56 -42 -136 -101 25 -47 52 -17 hvcurveto
          -4 vlineto
          hintmask 11110010
          -54 -16 -28 -38 -113 vvcurveto
          -139 46 -51 129 46 64 8 9 39 vhcurveto
          296 61 87 vlineto
          endchar
        </CharString>
        <CharString name="aogonek">
          43 111 callsubr
          -85 callgsubr
          hstemhm
          19 93 79 76 -49 56 callgsubr
          hintmask 1100111100000000
          305 -138 rmoveto
          -30 -8 19 20 hvcurveto
          hintmask 1010111010000000
          39 30 43 19 17 vhcurveto
          319 vlineto
          153 -33 46 -118 -55 -47 -7 -5 -24 vhcurveto
          -79 vlineto
          2 7 46 5 43 hhcurveto
          75 8 -11 -97 hvcurveto
          -33 vlineto
          2 -22 -39 2 -23 hhcurveto
          -88 -27 -39 -113 hvcurveto
          hintmask 1100111010000000
          -56 callgsubr
          hintmask 1001111010000000
          -78 callsubr
          hintmask 1010111010000000
          4 -65 rlineto
          hintmask 1010111100000000
          23 hlineto
          -33 -32 -23 -41 -42 vvcurveto
          -42 125 callsubr
          hintmask 1100111100000000
          -1 -8 -2 0 -2 hhcurveto
          hintmask 1100111010000000
          -87 333 rmoveto
          -33 -1 -23 -5 -23 vhcurveto
          -33 -7 -22 -2 -24 hhcurveto
          -41 -6 18 54 64 11 12 37 hvcurveto
          58 hlineto
          endchar
        </CharString>
        <CharString name="approxequal">
          118 107 119 -108 118 33 119 -108 2 callgsubr
          53 62 197 62 hintmask 00000000
          hintmask 01101100
          53 269 rmoveto
          62 hlineto
          31 3 13 21 17 22 -8 -6 24 vhcurveto
          hintmask 01011100
          -10 30 34 -9 61 callsubr
          hintmask 01101100
          108 callsubr
          -41 -78 hvcurveto
          hintmask 10011100
          -162 vmoveto
          62 hlineto
          32 3 12 21 17 22 -7 -7 23 vhcurveto
          hintmask 01011100
          -9 31 34 -10 61 callsubr
          hintmask 10011100
          108 callsubr
          -41 -78 hvcurveto
          endchar
        </CharString>
        <CharString name="aring">
          -89 callgsubr
          85 55 90 54 hstemhm
          19 93 -42 69 76 67 -64 98 hintmask 0101111010100000
          177 603 rmoveto
          hintmask 0101111011000000
          100 5 31 68 69 -5 31 -100 -101 -6 -31 -69 hvcurveto
          hintmask 0101111010100000
          -68 6 -31 101 vhcurveto
          hintmask 0101111011000000
          55 vmoveto
          -36 -2 8 36 36 2 10 36 35 3 -10 -36 -36 -3 -8 -35 hvcurveto
          hintmask 1001111100100000
          -51 -666 rmoveto
          hintmask 0011111010100000
          -78 callsubr
          hintmask 0101111100100000
          -107 callsubr
          hintmask 1001111100100000
          -56 callgsubr
          hintmask 0101111100100000
          -103 callsubr
          endchar
        </CharString>
        <CharString name="aringacute">
          -89 callgsubr
          98 55 90 54 29 144 hstemhm
          19 93 -42 69 76 67 -64 56 callgsubr
          hintmask 0101111101100000
          137 844 -101 callgsubr
          40 -233 rmoveto
          100 5 31 68 hvcurveto
          hintmask 0101111001100000
          69 -5 31 -100 -101 -6 -31 -69 vhcurveto
          hintmask 0101111101100000
          116 callgsubr
          hintmask 0101111001100000
          36 2 10 36 35 3 -10 -36 vhcurveto
          hintmask 0101111101100000
          -36 -3 -8 -35 vhcurveto
          hintmask 1001111010010000
          -51 -679 rmoveto
          hintmask 0011111001010000
          -78 callsubr
          hintmask 0101111010010000
          -107 callsubr
          hintmask 1001111010010000
          -56 callgsubr
          hintmask 0101111010010000
          -103 callsubr
          endchar
        </CharString>
        <CharString name="arrowboth">
          80 callsubr
          325 177 rmoveto
          -34 84 rlineto
          300 hlineto
          -33 -84 122 callgsubr
          -300 hlineto
          34 84 -270 -128 rlineto
          endchar
        </CharString>
        <CharString name="arrowdown">
          86 -20 callsubr
          hstem
          155 86 vstem
          198 -85 rmoveto
          127 270 -84 -34 rlineto
          537 -86 -537 vlineto
          -85 34 rlineto
          endchar
        </CharString>
        <CharString name="arrowdown.ss01">
          36 171 285 hstem
          30 285 vstem
          173 171 rmoveto
          142 285 rlineto
          -285 hlineto
          endchar
        </CharString>
        <CharString name="arrowleft">
          80 callsubr
          286 261 rmoveto
          542 87 -542 hlineto
          34 84 -265 -128 265 -127 rlineto
          endchar
        </CharString>
        <CharString name="arrowleft.ss01">
          54 201 285 hstem
          30 285 vstem
          315 201 rmoveto
          285 vlineto
          -285 -143 rlineto
          endchar
        </CharString>
        <CharString name="arrowright">
          80 callsubr
          558 177 rmoveto
          122 callgsubr
          -536 -87 536 hlineto
          endchar
        </CharString>
        <CharString name="arrowright.ss01">
          54 201 285 hstem
          48 285 vstem
          48 201 rmoveto
          285 142 -285 143 rlineto
          endchar
        </CharString>
        <CharString name="arrowup">
          86 691 -20 hstem
          155 86 vstem
          155 -82 rmoveto
          86 536 hlineto
          84 -33 -127 270 -128 -270 85 33 rlineto
          endchar
        </CharString>
        <CharString name="arrowup.ss01">
          36 516 -20 hstem
          30 285 vstem
          30 231 rmoveto
          285 hlineto
          -142 285 rlineto
          endchar
        </CharString>
        <CharString name="arrowupdn">
          86 696 3 callsubr
          endchar
        </CharString>
        <CharString name="arrowupdnbse">
          86 -195 71 820 3 callsubr
          -15 -380 rmoveto
          285 71 -285 hlineto
          endchar
        </CharString>
        <CharString name="asciicircum">
          64 493 257 hstem
          22 329 vstem
          261 493 rmoveto
          90 hlineto
          -119 257 rlineto
          -92 hlineto
          -118 -257 rlineto
          90 hlineto
          74 178 rlineto
          endchar
        </CharString>
        <CharString name="asciitilde">
          118 239 118 -107 2 callgsubr
          53 62 197 62 hintmask 01110000
          374 368 rmoveto
          -62 hlineto
          -31 -3 -12 -21 -17 -21 7 6 -24 vhcurveto
          hintmask 10110000
          108 callsubr
          -40 -78 hvcurveto
          62 hlineto
          31 3 12 21 17 22 -8 -6 23 vhcurveto
          hintmask 01110000
          -9 31 33 -9 32 hhcurveto
          73 4 40 78 hvcurveto
          endchar
        </CharString>
        <CharString name="asterisk">
          76 -20 callsubr
          hstem
          164 56.5 vstem
          216 494 rmoveto
          94 -64 33 56 -102 49 101 49 -32 57 -94 -64 9 111 rlineto
          -65 hlineto
          8 -111 -94 64 -32 -57 101 -49 -100 -49 31 -56 94 64 -8 -111 rlineto
          65 hlineto
          endchar
        </CharString>
        <CharString name="asterisk.ss02">
          508 -14 719 hstem
          35 747 vstem
          178 -14 rmoveto
          231 170 231 -170 -90 276 232 174 rlineto
          -288 hlineto
          -85 269 -87 -269 rlineto
          -287 hlineto
          234 -174 rlineto
          endchar
        </CharString>
        <CharString name="at">
          256 -108 49 134 50 5 16 123 61 115 73 129 49 hstemhm
          46 52 68 79 73 83 70 52 hintmask 1101111111000000
          285 -108 rmoveto
          88 11 0 2 17 hvcurveto
          50 vlineto
          -2 -18 -29 -1 -69 hhcurveto
          -29 -24 1 1 -15 hvcurveto
          -117 10 -2 52 289 vvcurveto
          292 1 52 109 8 vhcurveto
          1 28 23 0 26 hhcurveto
          37 29 0 -4 25 hvcurveto
          94 -14 1 -62 -273 vvcurveto
          -167 -6 -2 -31 vhcurveto
          -33 223 hlineto
          129 -24 41 -94 -33 -35 -4 -6 -32 vhcurveto
          -70 vlineto
          5 33 20 2 22 hhcurveto
          55 5 -10 -81 hvcurveto
          -27 vlineto
          2 -29 -22 1 -10 hhcurveto
          -69 -22 -34 -97 hvcurveto
          hintmask 1011111111000000
          -93 20 -38 63 28 30 15 47 8 vhcurveto
          6 hlineto
          hintmask 1101111111000000
          4 -55 rlineto
          105 hlineto
          67 26 4 215 356 -5 46 -233 -233 -6 -46 -356 -356 6 -46 233 hvcurveto
          hintmask 1011111111000000
          -9 254 rmoveto
          -27 -4 14 45 55 7 9 26 hvcurveto
          40 -26 hlineto
          -79 -9 -18 -33 vhcurveto
          endchar
        </CharString>
        <CharString name="atilde">
          -89 callgsubr
          96 -77 callgsubr
          19 93 -62 61 107 98 -72 61 callgsubr
          hintmask 0101101010100000
          304 -51 callgsubr
          hintmask 0101110011000000
          -103 callgsubr
          hintmask 0101101010100000
          -94 callgsubr
          hintmask 1001110101000000
          -178 -751 rmoveto
          hintmask 0011110011000000
          -78 callsubr
          hintmask 0101110101000000
          -107 callsubr
          hintmask 1001110101000000
          -56 callgsubr
          hintmask 0101110101000000
          -103 callsubr
          endchar
        </CharString>
        <CharString name="b">
          65 74 callsubr
          350 22 -22 131 callgsubr
          hintmask 10001110
          230 -8 rmoveto
          91 23 50 213 205 -19 58 -94 hvcurveto
          hintmask 01010110
          -50 -26 -22 -44 -10 hvcurveto
          -8 291 -98 -743 93 hlineto
          hintmask 00101110
          4 64 rlineto
          7 hlineto
          hintmask 10001110
          -58 11 40 -14 36 hhcurveto
          -38 88 rmoveto
          -27 -16 10 36 -6 hvcurveto
          -5 30 -1 39 60 vvcurveto
          64 2 39 5 28 vhcurveto
          33 5 16 11 27 hhcurveto
          48 6 -12 -163 -163 -6 -12 -48 hvcurveto
          endchar
        </CharString>
        <CharString name="backslash">
          -37 -55 798 hstem
          25 222 vstem
          159 -55 rmoveto
          88 hlineto
          -133 798 rlineto
          -89 hlineto
          endchar
        </CharString>
        <CharString name="bar">
          132 callsubr
          -161 rmoveto
          94 904 -94 hlineto
          endchar
        </CharString>
        <CharString name="bar.ss02">
          189 75 callsubr
          -1 500 vstem
          -1 hmoveto
          500 696 -500 hlineto
          endchar
        </CharString>
        <CharString name="braceleft">
          -43 -150 893 hstemhm
          20 82 -15 98 hintmask 10100000
          181 -150 rmoveto
          65 hlineto
          -43 47 -18 45 94 vvcurveto
          111 vlineto
          75 -23 55 -60 16 vhcurveto
          7 vlineto
          60 16 23 55 75 vvcurveto
          111 vlineto
          94 18 45 43 47 vhcurveto
          -65 hlineto
          -55 -32 -39 -74 -72 vvcurveto
          -126 vlineto
          -58 -13 -53 -54 -8 vhcurveto
          hintmask 11000000
          -46 vlineto
          hintmask 10100000
          54 -8 13 -53 -59 vvcurveto
          -126 vlineto
          -72 39 -74 55 -32 vhcurveto
          endchar
        </CharString>
        <CharString name="braceright">
          -43 -150 893 hstemhm
          81 98 -15 83 hintmask 11000000
          20 -150 rmoveto
          66 hlineto
          54 32 39 74 72 vvcurveto
          126 vlineto
          59 13 53 55 8 vhcurveto
          hintmask 10100000
          46 vlineto
          hintmask 11000000
          -54 8 -14 53 58 vvcurveto
          126 vlineto
          72 -39 74 -54 32 vhcurveto
          -66 hlineto
          43 -46 18 -46 -94 vvcurveto
          -111 vlineto
          -75 24 -55 59 -16 vhcurveto
          -7 vlineto
          -59 -16 -24 -55 -75 vvcurveto
          -111 vlineto
          -94 -18 -44 -43 -48 vhcurveto
          endchar
        </CharString>
        <CharString name="bracketleft">
          -69 -150 68 758 67 hstem
          45 98 vstem
          45 -150 rmoveto
          169 66 hlineto
          -71 4 rlineto
          754 vlineto
          71 4 rlineto
          65 -169 vlineto
          endchar
        </CharString>
        <CharString name="bracketleft.ss02">
          31 callsubr
          hvcurveto
          -348 vlineto
          endchar
        </CharString>
        <CharString name="bracketright">
          -69 -150 68 758 67 hstem
          96 99 vstem
          25 -150 rmoveto
          170 893 -170 -65 hlineto
          71 -4 rlineto
          -754 vlineto
          -71 -4 rlineto
          endchar
        </CharString>
        <CharString name="bracketright.ss02">
          88 75 callsubr
          0 352 vstem
          0 vmoveto
          352 348 hlineto
          107 callgsubr
          vhcurveto
          endchar
        </CharString>
        <CharString name="breve">
          -90 610 60 hstem
          -2 65 92 65 vstem
          220 -65 callgsubr
          endchar
        </CharString>
        <CharString name="brokenbar">
          132 callsubr
          390 rmoveto
          94 353 -94 hlineto
          -904 vmoveto
          94 353 -94 hlineto
          endchar
        </CharString>
        <CharString name="bullet">
          -66 258 172 hstem
          36 172 vstem
          208 342 rmoveto
          76 -4 12 -84 -80 -4 -12 -76 -72 4 -12 80 84 4 12 72 vhcurveto
          endchar
        </CharString>
        <CharString name="bullet.ss02">
          474 -8 60 155 60 -36 60 105 60 -35 60 155 60 hstemhm
          40 60 155 60 -36 60 105 60 -36 60 155 61 callgsubr
          hintmask 0010111011000000
          392 421 rmoveto
          62 50 39 73 90 -76 73 -36 -37 -76 -73 -90 -73 50 -39 63 hvcurveto
          60 vmoveto
          -30 -23 18 34 57 36 46 17 17 35 -46 -57 -34 -23 -18 -29 hvcurveto
          -189 -250 rmoveto
          hintmask 0011001100000000
          73 39 50 63 62 -39 50 -73 -90 -73 -76 -36 hvcurveto
          hintmask 0010111011000000
          -37 73 -76 90 vhcurveto
          hintmask 0011001100110000
          378 hmoveto
          89 73 76 37 36 -73 76 -89 -74 -39 -50 -62 -63 39 -50 74 hvcurveto
          -378 60 rmoveto
          -57 -46 36 17 17 46 35 57 34 18 -23 -29 -30 -18 -23 -34 hvcurveto
          378 hmoveto
          -35 -18 23 30 29 18 23 35 56 46 -35 -17 -17 -46 -36 -56 hvcurveto
          hintmask 1100000011000000
          -189 -299 rmoveto
          36 76 73 90 73 -50 39 -62 -63 -50 -39 -73 -90 76 -73 37 hvcurveto
          60 vmoveto
          -17 -36 46 57 34 23 18 30 29 23 -18 -34 -57 -35 -46 -17 hvcurveto
          endchar
        </CharString>
        <CharString name="c">
          -27 -60 callgsubr
          hstem
          29 98 vstem
          262 5 -86 callsubr
        </CharString>
        <CharString name="cacute">
          -27 128 callgsubr
          vstem
          99 -84 callgsubr
          163 -599 -86 callsubr
        </CharString>
        <CharString name="cacute.loclPLK">
          -27 128 callgsubr
          vstem
          99 599 -73 callsubr
          163 -599 -86 callsubr
        </CharString>
        <CharString name="caron">
          -81 615 128 hstem
          -1 230 vstem
          63 615 -99 callgsubr
          endchar
        </CharString>
        <CharString name="caron.loclCSY">
          100 callsubr
          24 434 24 callgsubr
          endchar
        </CharString>
        <CharString name="ccaron">
          103 callgsubr
          90 615 -99 callgsubr
          236 -731 -86 callsubr
        </CharString>
        <CharString name="ccedilla">
          -27 -60 callgsubr
          hstem
          29 98 vstem
          200 76 rmoveto
          -63 -10 16 163 159 11 20 61 18 24 -2 -4 19 hvcurveto
          79 vlineto
          7 -26 -31 4 -33 hhcurveto
          -114 -27 -64 -199 -147 11 -80 68 -26 hvcurveto
          -58 -186 rlineto
          -5 86 vlineto
          35 181 rlineto
          1 hlineto
          29 31 4 9 30 hvcurveto
          78 vlineto
          -5 -18 -24 -2 -20 hhcurveto
          endchar
        </CharString>
        <CharString name="ccircumflex">
          103 callgsubr
          25 615 -107 callgsubr
          237 -617 -86 callsubr
        </CharString>
        <CharString name="cdotaccent">
          -27 -60 callgsubr
          122 90 hstemhm
          29 98 -30 87 137 callsubr
          97 640 -6 callgsubr
          165 -725 rmoveto
          78 vlineto
          hintmask 11110000
          -5 -18 -24 -2 -20 hhcurveto
          -63 -10 16 163 159 11 20 61 18 24 -2 -4 19 hvcurveto
          79 vlineto
          7 -26 -31 4 -33 hhcurveto
          -114 -27 -64 -199 -184 18 -79 125 hvcurveto
          hintmask 11101000
          29 31 4 9 30 hvcurveto
          endchar
        </CharString>
        <CharString name="cedilla">
          -176 -189 197 hstem
          5 123 vstem
          5 68 callsubr
        </CharString>
        <CharString name="cent">
          -7 -8 162 375 86 -86 167 hstemhm
          34 99 9 75 hintmask 00000000
          hintmask 10111000
          142 -8 rmoveto
          75 77 hlineto
          20 3 21 4 14 5 rrcurveto
          81 vlineto
          hintmask 10110000
          -4 -20 -29 -4 -16 hhcurveto
          -67 -7 24 165 163 9 23 66 hvcurveto
          hintmask 10111000
          21 12 -2 -4 29 hvcurveto
          hintmask 11011000
          82 vlineto
          -14 5 -20 3 -19 2 rrcurveto
          hintmask 10111000
          81 -75 -83 vlineto
          hintmask 10110000
          -86 -15 -22 -70 -186 vvcurveto
          hintmask 10111000
          -172 13 -83 95 -16 vhcurveto
          endchar
        </CharString>
        <CharString name="circumflex">
          -81 615 128 hstem
          -2 231 vstem
          -2 615 -75 callgsubr
        </CharString>
        <CharString name="colon">
          -107 0 110 290 107 callsubr
          400 rmoveto
          -91 callgsubr
          -510 vmoveto
          -91 callgsubr
          endchar
        </CharString>
        <CharString name="comma">
          -107 -139 49 90 110 hstem
          46 109 vstem
          39 -90 35 callgsubr
        </CharString>
        <CharString name="copyright">
          179 -8 40 124 55 266 55 124 40 hstem
          52 41 78 59 165 41 vstem
          244 -8 rmoveto
          185 7 39 313 313 -7 39 -185 -185 -7 -39 -313 -313 7 -39 185 hvcurveto
          40 30 callsubr
          14 124 rmoveto
          15 18 3 5 12 hvcurveto
          50 vlineto
          -1 -8 -15 -2 -12 hhcurveto
          -36 -2 11 122 122 2 11 36 11 14 -1 -2 9 hvcurveto
          51 vlineto
          5 -8 -19 2 -17 hhcurveto
          -75 -12 -38 -150 -150 11 -38 76 hvcurveto
          endchar
        </CharString>
        <CharString name="currency">
          186 87 72 371 84 hstem
          112 81 109 81 vstem
          92 6 rmoveto
          80 81 rlineto
          19 -8 25 -4 31 33 24 4 20 hflex1
          80 -81 62 62 -83 83 rlineto
          15 39 2 61 0 96 0 93 -2 60 39 flex1
          83 83 -61 62 -82 -82 rlineto
          9 -19 -24 3 -33 hhcurveto
          -31 -24 -3 -8 -19 hvcurveto
          -82 82 -62 -62 83 -83 rlineto
          -15 -39 -2 -61 0 -93 0 -96 2 -62 -38 flex1
          -82 -83 rlineto
          217 91 rmoveto
          -51 -3 17 171 165 3 18 51 52 3 -18 -165 -171 -3 -17 -52 hvcurveto
          endchar
        </CharString>
        <CharString name="d">
          81 callgsubr
          26 callsubr
          hintmask 10011100
          -3 callsubr
          hintmask 01101100
          9 callgsubr
          hintmask 10011100
          -11 callsubr
          -213 24 -50 90 hvcurveto
          38 88 rmoveto
          -60 callsubr
          -41 -6 -16 -10 -29 hhcurveto
          endchar
        </CharString>
        <CharString name="dagger">
          -2 21 -21 437.5 75.5 175 -20 hstem
          112 81.5 vstem
          116 hmoveto
          74 hlineto
          7 433 84 callgsubr
          -77 -9 rlineto
          -71 vlineto
          77 -9 rlineto
          endchar
        </CharString>
        <CharString name="daggerdbl">
          -1 21 -21 170.5 81 186 75.5 175 -20 hstemhm
          108 89 -85 81.5 99 callsubr
          116 hmoveto
          74 hlineto
          7 166 rlineto
          hintmask 11111000
          80 9 rlineto
          72 vlineto
          -80 9 rlineto
          177 vlineto
          hintmask 11110100
          84 callgsubr
          rlineto
          hintmask 11111000
          -77 -9 rlineto
          -71 vlineto
          77 -9 rlineto
          -177 vlineto
          hintmask 11110100
          -77 -9 rlineto
          -72 vlineto
          77 -9 rlineto
          endchar
        </CharString>
        <CharString name="dcaron">
          81 callgsubr
          -84 254 0 -20 26 callsubr
          44 94 hintmask 1001011110000000
          -3 callsubr
          hintmask 0110011110000000
          9 callgsubr
          hintmask 1001011110000000
          -11 callsubr
          -213 24 -50 90 hvcurveto
          hintmask 1000101110000000
          221 442 rmoveto
          72 hlineto
          36 192 rlineto
          62 -94 -62 vlineto
          -197 -546 rmoveto
          -48 -6 12 163 hvcurveto
          hintmask 1001011110000000
          163 6 12 46 30 15 -10 -44 7 vhcurveto
          4 -26 1 -38 -50 vvcurveto
          -59 0 -37 -4 -35 vhcurveto
          hintmask 1000101110000000
          -41 -6 -16 -10 -29 hhcurveto
          endchar
        </CharString>
        <CharString name="dcroat">
          81 callgsubr
          86 84 26 callsubr
          hintmask 10011110
          373 688 rmoveto
          -39 55 -98 -55 -91 -84 91 hlineto
          hintmask 10101110
          -152 -7 vlineto
          hintmask 10011110
          -11 callsubr
          -213 24 -50 90 37 39 14 58 12 hvcurveto
          7 hlineto
          hintmask 01011110
          4 -64 rlineto
          92 604 39 hlineto
          hintmask 10011110
          -141 -473 rmoveto
          -41 -6 -16 -10 -29 hhcurveto
          -60 callsubr
          endchar
        </CharString>
        <CharString name="degree">
          -33 397 57 186 56 hstem
          34 67 75 67 vstem
          139 397 rmoveto
          102 2 39 111 110 -2 39 -102 123 callsubr
          57 vmoveto
          -38 0 14 79 78 0 15 38 37 0 -15 -78 -79 0 -14 -37 hvcurveto
          endchar
        </CharString>
        <CharString name="dialog">
          496 76 callgsubr
          59 60 567 60 vstem
          306 -212 rmoveto
          213 212 rlineto
          227 688 -687 -688 247 60 -187 568 567 -568 -192 hlineto
          -188 -187 rlineto
          endchar
        </CharString>
        <CharString name="dieresis">
          -38 640 90 hstem
          10 88 75 88 vstem
          10 640 -89 callsubr
          endchar
        </CharString>
        <CharString name="divide">
          132 58 79 73 87 73 79 hstem
          175 91 vstem
          175 370 rmoveto
          91 79 -91 hlineto
          -123 -239 130 callgsubr
          123 -239 rmoveto
          91 79 -91 hlineto
          endchar
        </CharString>
        <CharString name="dollar">
          31 -8 165 -86 86 376 84 -84 163 hstemhm
          35 98 5 75 -3 96 hintmask 10010100
          138 -8 rmoveto
          75 83 hlineto
          hintmask 10011010
          64 14 29 47 101 vvcurveto
          120 -31 18 -45 10 vhcurveto
          -63 13 rlineto
          -28 6 -6 5 58 vvcurveto
          48 14 18 51 vhcurveto
          hintmask 10010100
          23 40 -5 -5 25 hvcurveto
          hintmask 10100100
          81 vlineto
          -14 6 -30 5 -29 2 rrcurveto
          hintmask 10010100
          79 -75 -80 vlineto
          hintmask 10011010
          -66 -12 -37 -43 -100 vvcurveto
          -98 19 -35 56 -14 vhcurveto
          65 -14 rlineto
          27 -5 8 -3 -63 vvcurveto
          -61 -26 -11 -47 vhcurveto
          hintmask 10010100
          -28 -50 4 5 -15 hvcurveto
          hintmask 01010100
          -79 vlineto
          22 -7 40 -7 32 -2 rrcurveto
          endchar
        </CharString>
        <CharString name="dotaccent">
          -210 640 90 hstem
          6 87 vstem
          6 640 -6 callgsubr
          endchar
        </CharString>
        <CharString name="dotbelowcomb">
          -43 callsubr
          hstem
          -155 108 vstem
          -155 -172 -94 callsubr
        </CharString>
        <CharString name="dotlessi">
          -15 callsubr
          112 callsubr
          39 hmoveto
          -10 callgsubr
        </CharString>
        <CharString name="e">
          -64 callgsubr
          76 callsubr
          324 255 -105 callsubr
          endchar
        </CharString>
        <CharString name="eacute">
          -64 callgsubr
          81 144 76 callsubr
          273 738 -55 callsubr
          99 -344 -105 callsubr
          endchar
        </CharString>
        <CharString name="ebreve">
          -64 callgsubr
          92 60 hstemhm
          29 98 -62 65 92 65 -54 91 138 callgsubr
          176 610 rmoveto
          101 10 56 77 hvcurveto
          -65 hlineto
          -45 0 -28 -46 -45 -1 28 45 vhcurveto
          -65 hlineto
          -77 11 -56 100 vhcurveto
          hintmask 11111001
          148 -355 -105 callsubr
          endchar
        </CharString>
        <CharString name="ecaron">
          -64 callgsubr
          97 128 76 callsubr
          226 615 5 callgsubr
          199 -360 -105 callsubr
          endchar
        </CharString>
        <CharString name="ecircumflex">
          -64 callgsubr
          97 128 76 callsubr
          183 691 -62 callgsubr
          187 -360 -105 callsubr
          endchar
        </CharString>
        <CharString name="edieresis">
          -64 callgsubr
          124 90 hstemhm
          29 98 -70 88 75 88 -75 91 138 callgsubr
          145 732 39 callsubr
          hintmask 11111001
          16 -387 -105 callsubr
          endchar
        </CharString>
        <CharString name="edotaccent">
          -64 callgsubr
          122 90 hstemhm
          29 98 6 87 13 91 138 callgsubr
          220 730 rmoveto
          -87 -90 87 hlineto
          hintmask 11111010
          104 -385 -105 callsubr
          endchar
        </CharString>
        <CharString name="egrave">
          -64 callgsubr
          81 144 76 callsubr
          226 599 -47 callsubr
          177 -344 -105 callsubr
          endchar
        </CharString>
        <CharString name="eight">
          69 -8 90 223 86 215 90 hstemhm
          27 106 -100 101 111 101 -100 105 hintmask 00000000
          hintmask 11110010
          189 -8 rmoveto
          119 43 50 140 116 -27 36 -52 15 hvcurveto
          4 vlineto
          hintmask 11101100
          50 -49 callsubr
        </CharString>
        <CharString name="eight.dnom">
          -84 -4 57 callsubr
          -4 -54 callsubr
        </CharString>
        <CharString name="eight.numr">
          -84 304 57 callsubr
          304 -54 callsubr
        </CharString>
        <CharString name="eight.tnum">
          72 -8 90 223 86 215 90 hstemhm
          28 106 -100 101 111 101 -100 106 hintmask 00000000
          hintmask 11110010
          190 -8 rmoveto
          119 44 50 140 116 -28 36 -51 15 hvcurveto
          4 vlineto
          hintmask 11101100
          49 -49 callsubr
        </CharString>
        <CharString name="ellipsis">
          296 0 110 hstem
          47 108 94 107 95 107 vstem
          47 hmoveto
          -91 callgsubr
          202 -110 55 callgsubr
          202 -110 55 callgsubr
          endchar
        </CharString>
        <CharString name="emacron">
          -64 callgsubr
          134 91 hstemhm
          29 98 -33 165 -26 91 99 callsubr
          259 743 130 callsubr
          hintmask 11111010
          65 -397 -105 callsubr
          endchar
        </CharString>
        <CharString name="emdash">
          479 262 86 hstem
          46 696 vstem
          46 262 rmoveto
          696 86 -696 hlineto
          endchar
        </CharString>
        <CharString name="endash">
          112 262 86 hstem
          46 328 vstem
          46 262 rmoveto
          328 86 -328 hlineto
          endchar
        </CharString>
        <CharString name="eng">
          66 -195 75 141 -27 callsubr
          97 callgsubr
          hintmask 00000000
          hintmask 11001110
          239 518 rmoveto
          hintmask 11100110
          -26 callgsubr
          hintmask 11010110
          -79 callgsubr
          -360 vlineto
          -39 -1 -14 -48 vhcurveto
          -75 vlineto
          114 33 13 164 hvcurveto
          355 vlineto
          hintmask 11001110
          0 callgsubr
          endchar
        </CharString>
        <CharString name="eogonek">
          44 111 callsubr
          84 150 68 140 84 hstemhm
          29 98 57 76 -27 29 callgsubr
          vhcurveto
          hintmask 11111100
          15 15 0 3 18 hvcurveto
          -29 -31 -22 -39 -40 vvcurveto
          -42 23 -39 65 14 15 39 callgsubr
          -8 19 20 43 35 43 20 18 4 callgsubr
          hintmask 11111010
          -93 callgsubr
          endchar
        </CharString>
        <CharString name="equal">
          132 125 88 81 87 hstem
          52 337 vstem
          52 294 130 callgsubr
          -256 vmoveto
          337 88 -337 hlineto
          endchar
        </CharString>
        <CharString name="estimated">
          90 -8 34 297 34 305 34 118 callgsubr
          -40 36 hintmask 11111000
          136 323 rmoveto
          231 21 hlineto
          280 -7 72 -160 -161 -7 -72 -280 -279 7 -73 161 vhcurveto
          hintmask 11110100
          126 31 46 162 6 hvcurveto
          -36 hlineto
          -168 -7 -40 -6 -59 hhcurveto
          hintmask 11111000
          -75 -9 8 289 -1 hvcurveto
          64 339 rmoveto
          54 8 -8 -297 1 hvcurveto
          -127 hlineto
          297 1 8 8 55 hhcurveto
          endchar
        </CharString>
        <CharString name="eth">
          54 -60 callgsubr
          156 69 -55 -20 hstemhm
          29 98 -23 223 -90 98 hintmask 11011010
          134 callgsubr
          65 -3 57 -5 46 hvcurveto
          hintmask 11010100
          -8 75 -16 70 -22 56 46 7 rcurveline
          60 vlineto
          -71 -11 rlineto
          hintmask 11100100
          -10 21 -12 18 -11 16 rrcurveto
          -99 -4 hlineto
          13 -20 12 -21 12 -24 -57 -8 rcurveline
          -61 vlineto
          82 13 14 -36 10 -39 8 -40 rlinecurve
          -3 -2 rlineto
          11 -16 -20 6 -24 hhcurveto
          hintmask 11011010
          18 callsubr
          -34 -145 -157 -1 -22 -54 hvcurveto
          endchar
        </CharString>
        <CharString name="exclam">
          -24 callgsubr
        </CharString>
        <CharString name="exclam.case">
          -24 callgsubr
        </CharString>
        <CharString name="exclam.ss02">
          485 -8 45 72 82 460 45 hstem
          45 45 273 68 273 45 vstem
          397 -8 rmoveto
          194 158 158 194 194 -158 158 -194 -194 -12 callgsubr
          -194 -194 158 -158 194 hvcurveto
          45 vmoveto
          -169 -138 138 169 169 138 138 169 169 138 -138 -169 -169 -138 -138 -169 hvcurveto
          -20 231 rmoveto
          40 hlineto
          8 55 6 88 69 vvcurveto
          99 -68 -99 vlineto
          -69 6 -88 8 -55 vhcurveto
          -14 -159 rmoveto
          68 82 -68 hlineto
          endchar
        </CharString>
        <CharString name="exclamdbl">
          82 0 110 578 -20 hstemhm
          44 120 -114 108 68 120 -114 108 hintmask 11101000
          74 201 rmoveto
          61 hlineto
          20 -21 callsubr
          182 hmoveto
          60 hlineto
          21 -21 callsubr
          hintmask 11010100
          -24 -201 rmoveto
          -91 callgsubr
          -182 -110 -94 callsubr
        </CharString>
        <CharString name="exclamdown">
          -99 400 121 callgsubr
          hintmask 10100000
          52 400 55 callgsubr
          hintmask 11000000
          19 callgsubr
        </CharString>
        <CharString name="exclamdown.case">
          -99 21 -21 578 121 callgsubr
          hintmask 11010000
          52 578 55 callgsubr
          hintmask 11100000
          19 callgsubr
        </CharString>
        <CharString name="f">
          -64 126 callgsubr
          vstem
          63 hmoveto
          -57 callgsubr
          endchar
        </CharString>
        <CharString name="f_f">
          182 126 callgsubr
          147 98 vstem
          63 hmoveto
          -57 callgsubr
          245 -426 rmoveto
          -57 callgsubr
          endchar
        </CharString>
        <CharString name="fi">
          113 82 callsubr
          131 102 hstem
          63 98 123 98 vstem
          63 hmoveto
          -57 callgsubr
          221 215 38 callsubr
          endchar
        </CharString>
        <CharString name="five">
          43 -8 95 243 95 168 95 hstem
          40 97 89 104 vstem
          36 2 callsubr
          36 2 24 hhcurveto
          86 7 -10 -110 -106 -11 -17 -79 -23 -39 3 5 -38 hvcurveto
          endchar
        </CharString>
        <CharString name="five.dnom">
          -89 -4 102 callgsubr
          55 -54 callgsubr
          endchar
        </CharString>
        <CharString name="five.numr">
          -89 304 102 callgsubr
          363 -54 callgsubr
          endchar
        </CharString>
        <CharString name="five.tnum">
          72 -8 95 243 95 168 95 hstem
          49 97 89 104 vstem
          45 2 callsubr
          37 2 23 hhcurveto
          86 7 -10 -110 -106 -11 -17 -78 -24 -39 3 5 -38 hvcurveto
          endchar
        </CharString>
        <CharString name="fiveeighths">
          261 91 callsubr
          89 54 -24 50 104 54 91 54 hstemhm
          36 59 40 67 154 63 callsubr
          -40 callgsubr
          hintmask 0111011111010000
          112 hmoveto
          -7 callsubr
          -358 -325 -54 callgsubr
          hintmask 1010111111001000
          424 -367 rmoveto
          -2 callgsubr
          hintmask 1010111110110000
          -44 callsubr
          hintmask 1010111111010000
          -31 -9 -17 -20 -64 vvcurveto
          hintmask 1010111111001000
          -75 25 -29 76 vhcurveto
          hintmask 1010111110110000
          -38 callsubr
          hintmask 1010111111001000
          -41 callgsubr
        </CharString>
        <CharString name="fl">
          113 126 callgsubr
          123 98 vstem
          63 hmoveto
          -57 callgsubr
          221 -426 rmoveto
          96 callgsubr
          endchar
        </CharString>
        <CharString name="florin">
          37 -195 73 549 83 160 73 hstem
          -82 433 vstem
          335 670 rmoveto
          16 73 rlineto
          -131 -37 -10 -213 -46 hvcurveto
          -2 -10 rlineto
          -50 hlineto
          -18 -83 rlineto
          50 hlineto
          -98 -469 rlineto
          -72 -15 -14 -8 -56 hhcurveto
          -16 -73 rlineto
          132 36 12 178 38 hvcurveto
          91 432 rlineto
          68 hlineto
          18 83 rlineto
          -68 hlineto
          3 16 rlineto
          135 30 14 9 55 hhcurveto
          endchar
        </CharString>
        <CharString name="four">
          60 21 -21 146 95 447 -20 hstem
          204 103 vstem
          204 hmoveto
          103 146 47 95 -47 210 -78 hlineto
          -25 -210 rlineto
          -91 hlineto
          108 447 rlineto
          -106 hlineto
          -99 -460 rlineto
          -82 188 vlineto
          endchar
        </CharString>
        <CharString name="four.dnom">
          -90 0 134 -54 54 hstemhm
          121 64 hintmask 10100000
          121 hmoveto
          64 hlineto
          hintmask 01100000
          80 29 vlineto
          hintmask 10100000
          54 -29 116 -48 vlineto
          115 callgsubr
          hintmask 01100000
          137 callgsubr
        </CharString>
        <CharString name="four.numr">
          -90 388 54 hstem
          121 64 vstem
          121 308 rmoveto
          64 80 29 54 -29 116 -48 hlineto
          115 callgsubr
          137 callgsubr
        </CharString>
        <CharString name="four.ss01">
          63 21 -21 146 95 341 106 hstem
          204 103 vstem
          204 hmoveto
          103 146 46 95 -46 447 -163 hlineto
          -128 -464 rlineto
          -78 188 vlineto
          -103 95 rmoveto
          99 341 rlineto
          4 -341 hlineto
          endchar
        </CharString>
        <CharString name="four.tnum">
          72 21 -21 146 95 447 -20 hstem
          213 104 vstem
          213 hmoveto
          104 146 47 95 -47 210 -78 hlineto
          -25 -210 rlineto
          -99 hlineto
          116 447 rlineto
          -105 hlineto
          -108 -460 rlineto
          -82 195 vlineto
          endchar
        </CharString>
        <CharString name="fraction">
          -184 118 callsubr
          -108 341 vstem
          -108 hmoveto
          -7 callsubr
          endchar
        </CharString>
        <CharString name="g">
          -46 callgsubr
          26 callsubr
          hintmask 11001110
          170 -203 71 callgsubr
          hintmask 11010110
          443 -92 vlineto
          hintmask 11100110
          -4 -64 rlineto
          -7 hlineto
          hintmask 11001110
          -91 callsubr
          36 callgsubr
          -92 callsubr
        </CharString>
        <CharString name="g_tilde.loclGUA">
          -46 callgsubr
          96 41 callsubr
          -67 61 115 98 -80 61 callgsubr
          hintmask 1100101100100000
          79 callgsubr
          hintmask 1100110011000000
          -103 callgsubr
          hintmask 1100101100100000
          -94 callgsubr
          hintmask 1101010101000000
          -144 -946 71 callgsubr
          443 -92 vlineto
          hintmask 1110010101000000
          -4 -64 rlineto
          -7 hlineto
          hintmask 1100110101000000
          -91 callsubr
          hintmask 1101010101000000
          36 callgsubr
          hintmask 1100110101000000
          -92 callsubr
        </CharString>
        <CharString name="gbreve">
          -46 callgsubr
          92 60 hstemhm
          29 98 -52 65 92 65 -61 56 callgsubr
          hintmask 1100110110000000
          297 -65 callgsubr
          -127 -946 rmoveto
          hintmask 1101011001000000
          13 callsubr
          443 -92 vlineto
          hintmask 1110011001000000
          -4 -64 rlineto
          -7 hlineto
          hintmask 1100111001000000
          -91 callsubr
          hintmask 1100110110000000
          36 callgsubr
          hintmask 1100111001000000
          -92 callsubr
        </CharString>
        <CharString name="gcaron">
          -46 callgsubr
          97 128 26 callsubr
          hintmask 11001111
          136 615 -99 callgsubr
          98 -939 71 callgsubr
          hintmask 11010111
          443 -92 vlineto
          hintmask 11100111
          -4 -64 rlineto
          -7 hlineto
          hintmask 11001111
          -91 callsubr
          36 callgsubr
          -92 callsubr
        </CharString>
        <CharString name="gcircumflex">
          -46 callgsubr
          97 128 26 callsubr
          hintmask 11001111
          71 615 -107 callgsubr
          99 -825 71 callgsubr
          hintmask 11010111
          443 -92 vlineto
          hintmask 11100111
          -4 -64 rlineto
          -7 hlineto
          hintmask 11001111
          -91 callsubr
          36 callgsubr
          -92 callsubr
        </CharString>
        <CharString name="gcommaaccent">
          -46 callgsubr
          82 83 68 46 hstemhm
          29 98 8 104 -3 56 callgsubr
          hintmask 1100111110000000
          246 49 callgsubr
          -76 -954 rmoveto
          hintmask 1101011101000000
          13 callsubr
          443 -92 vlineto
          hintmask 1110011101000000
          -4 -64 rlineto
          -7 hlineto
          hintmask 1100111101000000
          -91 callsubr
          hintmask 1100111110000000
          36 callgsubr
          hintmask 1100111101000000
          -92 callsubr
        </CharString>
        <CharString name="gdotaccent">
          -46 callgsubr
          122 90 hstemhm
          29 98 16 87 6 56 callgsubr
          hintmask 1100111100000000
          143 640 -6 callgsubr
          27 -933 rmoveto
          hintmask 1101011010000000
          13 callsubr
          443 -92 vlineto
          hintmask 1110011010000000
          -4 -64 rlineto
          -7 hlineto
          hintmask 1100111010000000
          -91 callsubr
          hintmask 1100111100000000
          36 callgsubr
          hintmask 1100111010000000
          -92 callsubr
        </CharString>
        <CharString name="germandbls">
          70 0 84 324 83 175 84 hstemhm
          39 98 53 75 -19 99 -95 98 hintmask 11110010
          203 hmoveto
          126 19 76 174 136 -26 51 -57 14 hvcurveto
          4 vlineto
          hintmask 11110100
          55 14 25 40 83 vvcurveto
          120 -52 38 -101 -113 -40 -56 -146 vhcurveto
          -548 98 553 vlineto
          94 13 19 43 40 13 -17 -70 -72 -13 -16 -34 vhcurveto
          -9 hlineto
          hintmask 11111000
          -83 9 vlineto
          hintmask 11110010
          42 9 -22 -131 -159 -5 -12 -50 hvcurveto
          -13 -84 hlineto
          endchar
        </CharString>
        <CharString name="grave">
          109 callgsubr
          127 vstem
          46 599 -90 callgsubr
          endchar
        </CharString>
        <CharString name="gravecomb">
          599 72 callgsubr
          -77 599 -90 callgsubr
          endchar
        </CharString>
        <CharString name="gravecomb.case">
          744 72 callgsubr
          -77 744 -90 callgsubr
          endchar
        </CharString>
        <CharString name="greater">
          134 78 351 hstem
          52 338 vstem
          52 78 102 callsubr
          -89 vlineto
          230 -87 -230 -86 rlineto
          endchar
        </CharString>
        <CharString name="greaterequal">
          142 47 88 hstem
          59 339 vstem
          59 195 102 callsubr
          -90 vlineto
          231 -86 -231 -86 rlineto
          1 -237 rmoveto
          338 88 -338 hlineto
          endchar
        </CharString>
        <CharString name="guillemotleft">
          34 510 -20 hstem
          32 273 59 callgsubr
          200 -194 rmoveto
          73 hlineto
          -52 194 52 194 rlineto
          -73 hlineto
          -67 -194 rlineto
          endchar
        </CharString>
        <CharString name="guillemotright">
          34 510 -20 hstem
          39 273 58 callgsubr
          81 -194 rmoveto
          72 hlineto
          68 194 -68 194 rlineto
          -72 hlineto
          52 -194 rlineto
          endchar
        </CharString>
        <CharString name="guilsinglleft">
          -99 510 -20 hstem
          32 140 59 callgsubr
          endchar
        </CharString>
        <CharString name="guilsinglright">
          -99 510 -20 hstem
          39 139 58 callgsubr
          endchar
        </CharString>
        <CharString name="h">
          109 callsubr
          97 callgsubr
          hintmask 10111000
          240 hmoveto
          80 callgsubr
          hintmask 11011000
          18 callgsubr
          hintmask 10111000
          104 callgsubr
        </CharString>
        <CharString name="hbar">
          109 callsubr
          86 84 97 callgsubr
          hintmask 10111100
          239 518 rmoveto
          hintmask 11011100
          -49 -32 -22 -44 -13 hvcurveto
          -8 152 92 84 -92 55 -98 -55 -39 -84 39 -604 56 callsubr
          hintmask 10111100
          132 0 44 54 43 6 -11 -126 vhcurveto
          -293 98 336 vlineto
          133 -13 49 -86 vhcurveto
          endchar
        </CharString>
        <CharString name="hcircumflex">
          109 callsubr
          275 128 97 callgsubr
          hintmask 10111100
          -27 793 -107 callgsubr
          267 -800 rmoveto
          80 callgsubr
          hintmask 11011100
          18 callgsubr
          hintmask 10111100
          104 callgsubr
        </CharString>
        <CharString name="hookabovecomb">
          614 -29 callsubr
          -178 65 25 73 hintmask 00000000
          hintmask 11110000
          -178 614 -90 callsubr
          hintmask 11010000
          -98 callgsubr
          hintmask 11110000
          -17 callsubr
          endchar
        </CharString>
        <CharString name="hookabovecomb.case">
          738 -29 callsubr
          -178 65 25 73 hintmask 00000000
          hintmask 11110000
          -178 -37 callgsubr
          hintmask 11010000
          -92 callgsubr
          -23 -13 -4 -36 -11 hvcurveto
          -9 -2 rlineto
          hintmask 11110000
          -9 callgsubr
          endchar
        </CharString>
        <CharString name="house">
          128 0 86 hstem
          20 103 191.5 102.5 vstem
          20 hmoveto
          397 354 hlineto
          -149 346 rlineto
          -99 hlineto
          -149 -346 rlineto
          103 -268 rmoveto
          262 vlineto
          96 240 95 -240 1 -262 rlineto
          endchar
        </CharString>
        <CharString name="hungarumlaut">
          -76 612 116 hstem
          7 219 vstem
          7 612 -82 callsubr
          endchar
        </CharString>
        <CharString name="hyphen">
          49 callsubr
        </CharString>
        <CharString name="i">
          -15 callsubr
          151 102 hstem
          39 98 vstem
          39 641 38 callsubr
          endchar
        </CharString>
        <CharString name="i.loclTRK">
          -15 callsubr
          150 90 hstemhm
          39 98 -92 87 137 callsubr
          45 640 -6 callgsubr
          hintmask 11110000
          -6 -730 -15 callgsubr
        </CharString>
        <CharString name="iacute">
          -15 callsubr
          109 144 112 callsubr
          39 -84 callgsubr
          -604 vmoveto
          -10 callgsubr
        </CharString>
        <CharString name="iacute_j.loclNLD">
          45 -195 75 141 -6 callsubr
          109 144 hstem
          39 98 79 98 vstem
          47 -84 callgsubr
          177 -5 -101 callgsubr
          -185 -604 rmoveto
          33 callgsubr
          128 -705 -76 callgsubr
        </CharString>
        <CharString name="ibreve">
          -15 callsubr
          120 60 hstemhm
          -23 65 -3 98 -3 65 99 callsubr
          199 -65 callgsubr
          hintmask 11101000
          -160 -743 -15 callgsubr
        </CharString>
        <CharString name="icircumflex">
          -15 callsubr
          125 128 112 callsubr
          -27 615 -107 callgsubr
          66 -622 -15 callgsubr
        </CharString>
        <CharString name="idieresis">
          -15 callsubr
          152 90 hstemhm
          -37 88 -12 98 -11 88 99 callsubr
          -37 642 -89 callsubr
          hintmask 11101000
          -87 -732 -15 callgsubr
        </CharString>
        <CharString name="igrave">
          -15 callsubr
          109 144 112 callsubr
          58 599 -90 callgsubr
          29 -738 -15 callgsubr
        </CharString>
        <CharString name="ij">
          59 callsubr
          641 rmoveto
          99 102 -99 hlineto
          177 -102 65 callsubr
          -177 -743 rmoveto
          33 callgsubr
          128 -705 -76 callgsubr
        </CharString>
        <CharString name="imacron">
          -15 callsubr
          162 91 hstemhm
          6 165 -132 98 hintmask 00000000
          hintmask 11110000
          6 652 -50 callgsubr
          hintmask 11101000
          33 -743 -15 callgsubr
        </CharString>
        <CharString name="infinity">
          337 41 77 277 77 hstem
          42 88 151 84 150 88 vstem
          183 41 rmoveto
          78 38 47 66 24 hvcurveto
          -66 23 39 -47 77 hhcurveto
          105 36 78 137 137 -36 79 -105 -77 -39 -49 -62 -23 hvcurveto
          62 -24 -38 49 -78 hhcurveto
          -104 -37 -79 -137 -137 37 -78 104 hvcurveto
          8 77 rmoveto
          -50 -11 57 81 80 11 59 50 49 31 -57 -82 10 hvcurveto
          -79 -10 -31 -59 -49 hhcurveto
          263 hmoveto
          -49 -30 59 79 -10 hvcurveto
          82 10 30 57 49 hhcurveto
          50 11 -59 -80 -81 -11 -57 -50 hvcurveto
          endchar
        </CharString>
        <CharString name="integral">
          -36 -190 77 733 76 hstemhm
          69 104 -92.5 104 -90.5 102 hintmask 11010000
          33 -190 rmoveto
          hintmask 11001000
          114 49 3 133 6 1 0 -2 62 hvcurveto
          hintmask 11010000
          -21 513 rlineto
          hintmask 11100000
          -1 16 0 8 11 vvcurveto
          54 7 4 54 vhcurveto
          76 vlineto
          -116 -49 -3 -122 -10 -1 -4 1 -19 hvcurveto
          hintmask 11010000
          23 -532 rlineto
          hintmask 11001000
          3 -66 -1 0 -8 vvcurveto
          -41 -12 -4 -49 vhcurveto
          endchar
        </CharString>
        <CharString name="iogonek">
          -132 -196 58 159 -6 callsubr
          150 90 hstemhm
          11 76 -48 98 -92 87 hintmask 00000000
          hintmask 11110010
          132 730 rmoveto
          -87 -90 87 hlineto
          hintmask 11110100
          -6 -778 rmoveto
          -31 -8 19 20 38 31 43 19 18 hvcurveto
          3 callgsubr
          -510 vlineto
          hintmask 11111000
          29 hlineto
          -33 -31 -24 -42 -42 vvcurveto
          -42 23 -39 65 14 110 callsubr
          56 vlineto
          hintmask 11110100
          -1 -8 -3 0 -1 hhcurveto
          endchar
        </CharString>
        <CharString name="itilde">
          -132 21 -21 510 25 callgsubr
          -39 61 17 98 18 60 hintmask 00000000
          hintmask 11010110
          215 743 -16 callsubr
          -176 -743 -15 callgsubr
        </CharString>
        <CharString name="j">
          -132 -195 75 630 -20 151 102 hstem
          39 136 callsubr
          -49 -938 -76 callgsubr
        </CharString>
        <CharString name="jcircumflex">
          -132 -195 75 630 -20 125 128 112 callsubr
          -27 615 -107 callgsubr
          17 -817 -76 callgsubr
        </CharString>
        <CharString name="k">
          39 21 -21 213 85 212 -20 112 callsubr
          6 callgsubr
          445 -98 -743 98 213 33 hlineto
          endchar
        </CharString>
        <CharString name="kcommaaccent">
          39 14 callgsubr
          213 85 212 -20 hstemhm
          39 98 -10 104 hintmask 11111100
          6 callgsubr
          445 -98 -743 98 213 33 hlineto
          hintmask 11111010
          -50 -426 -83 callgsubr
        </CharString>
        <CharString name="kgreenlandic">
          39 21 -21 213 85 212 -20 112 callsubr
          6 callgsubr
          212 -98 -510 98 213 33 hlineto
          endchar
        </CharString>
        <CharString name="l">
          -132 21 -21 112 callsubr
          129 callsubr
          endchar
        </CharString>
        <CharString name="lacute">
          -132 21 -21 777 144 112 callsubr
          47 777 -101 callgsubr
          -8 -782 rmoveto
          96 callgsubr
          endchar
        </CharString>
        <CharString name="lcaron">
          -132 21 -21 434 254 0 -20 hstemhm
          39 98 44 95 hintmask 10111000
          129 callsubr
          hintmask 11011000
          128 -309 24 callgsubr
          endchar
        </CharString>
        <CharString name="lcommaaccent">
          -132 14 callgsubr
          hstemhm
          39 98 -56 65 hintmask 11110000
          129 callsubr
          hintmask 11101000
          -4 -956 rmoveto
          -46 vlineto
          hintmask 11110000
          97 14 31 104 hvcurveto
          62 -104 -83 vlineto
          hintmask 11101000
          39 -14 hlineto
          -41 -5 -13 -41 vhcurveto
          endchar
        </CharString>
        <CharString name="ldot">
          -49 21 -21 244 110 hstem
          39 98 37 92 vstem
          129 callsubr
          135 -499 rmoveto
          92 110 -92 hlineto
          endchar
        </CharString>
        <CharString name="leftOpenDialog">
          298 76 callgsubr
          0 60 vstem
          626 628 rmoveto
          60 -566 vlineto
          -60 -688 59 hlineto
          567 60 -566 568 hlineto
          endchar
        </CharString>
        <CharString name="less">
          134 78 351 hstem
          53 337 vstem
          390 78 rmoveto
          89 vlineto
          -230 86 230 87 rlineto
          89 vlineto
          -337 -130 rlineto
          -91 vlineto
          endchar
        </CharString>
        <CharString name="lessequal">
          134 47 88 hstem
          52 338 vstem
          390 195 rmoveto
          89 vlineto
          -230 86 230 86 rlineto
          90 vlineto
          -337 -130 rlineto
          -91 vlineto
          -1 -278 rmoveto
          338 88 -338 hlineto
          endchar
        </CharString>
        <CharString name="logicalnot">
          133 201 89 hstem
          301 88 vstem
          301 77 rmoveto
          88 213 -337 -89 249 hlineto
          endchar
        </CharString>
        <CharString name="longs">
          -76 126 callgsubr
          vstem
          63 hmoveto
          98 587 hlineto
          75 12 8 56 vhcurveto
          73 vlineto
          -136 -30 -14 -168 hvcurveto
          -51 -50 -84 50 vlineto
          endchar
        </CharString>
        <CharString name="lozenge">
          86 0 87 -66 -21 602 86 0 -20 hstemhm
          21 354 hintmask 01011000
          149 hmoveto
          98 hlineto
          128 344 -128 344 rlineto
          -98 hlineto
          -128 -344 rlineto
          hintmask 10101000
          177 -257 rmoveto
          -86 257 86 258 86 -258 rlineto
          endchar
        </CharString>
        <CharString name="lslash">
          -126 21 -21 hstem
          41 98 vstem
          41 hmoveto
          98 329 hlineto
          40 14 rlineto
          90 vlineto
          -40 -14 rlineto
          324 -98 -359 vlineto
          -37 -13 rlineto
          -90 vlineto
          37 13 rlineto
          endchar
        </CharString>
        <CharString name="m">
          262 21 -27 callsubr
          hstemhm
          39 98 101 98 101 98 hintmask 10011110
          437 hmoveto
          98 343 hlineto
          126 -17 49 -83 vhcurveto
          hintmask 11001110
          -53 -29 -24 -48 -15 hvcurveto
          -8 hlineto
          hintmask 10011110
          49 -10 -24 23 -57 hhcurveto
          hintmask 11001110
          -53 -29 -25 -47 -13 hvcurveto
          -8 hlineto
          hintmask 10101110
          -43 callgsubr
          hintmask 10011110
          132 0 44 54 42 5 -11 -126 vhcurveto
          -293 98 254 vlineto
          137 -1 39 55 41 6 -11 -126 vhcurveto
          endchar
        </CharString>
        <CharString name="macron">
          -45 652 91 hstem
          50 165 vstem
          50 652 -50 callgsubr
          endchar
        </CharString>
        <CharString name="minus">
          132 210 87 hstem
          52 337 vstem
          52 210 130 callgsubr
          endchar
        </CharString>
        <CharString name="minute">
          -138 -20 callsubr
          hstem
          37 98.5 vstem
          86 callgsubr
          endchar
        </CharString>
        <CharString name="multiply">
          103 100 307 hstem
          53 306 vstem
          206 192 rmoveto
          92 -92 61 62 -91 91 91 92 -61 62 -92 -92 -91 92 -62 -62 91 -92 -91 -91 62 -62 rlineto
          endchar
        </CharString>
        <CharString name="n">
          66 21 -27 callsubr
          97 callgsubr
          hintmask 10101100
          240 hmoveto
          98 337 hlineto
          hintmask 10011100
          0 callgsubr
          hintmask 11001100
          -26 callgsubr
          hintmask 10101100
          -79 callgsubr
          endchar
        </CharString>
        <CharString name="nacute">
          66 21 -27 callsubr
          81 144 97 callgsubr
          hintmask 10101110
          146 -84 callgsubr
          94 -604 -52 callsubr
        </CharString>
        <CharString name="nacute.loclPLK">
          66 21 -27 callsubr
          81 144 97 callgsubr
          hintmask 10101110
          146 599 -73 callsubr
          94 -604 -52 callsubr
        </CharString>
        <CharString name="napostrophe">
          145 21 -27 callsubr
          5 46 86 88 hstemhm
          20 103 -5 98 103 56 callgsubr
          hintmask 1010111010000000
          38 callgsubr
          306 -569 rmoveto
          98 337 hlineto
          hintmask 1001010110000000
          0 callgsubr
          hintmask 1100010110000000
          -26 callgsubr
          hintmask 1010010110000000
          -43 callgsubr
          132 -1 44 55 43 6 -11 -126 vhcurveto
          endchar
        </CharString>
        <CharString name="ncaron">
          66 21 -27 callsubr
          97 128 97 callgsubr
          hintmask 10101110
          136 615 -99 callgsubr
          168 -736 -52 callsubr
        </CharString>
        <CharString name="ncommaaccent">
          66 -259 46 68 83 83 -27 callsubr
          hstemhm
          39 98 4 104 -5 98 hintmask 1110101010000000
          240 hmoveto
          98 337 hlineto
          hintmask 1110011010000000
          0 callgsubr
          hintmask 1111001010000000
          -26 callgsubr
          hintmask 1110101010000000
          -79 callgsubr
          hintmask 1110100100000000
          -106 -506 -83 callgsubr
        </CharString>
        <CharString name="nine">
          58 -8 95 174 95 246 94 hstem
          24 99 111 101 vstem
          155 -8 rmoveto
          86 47 28 78 26 hvcurveto
          17 47 4 84 118 vvcurveto
          114 -2 80 -11 47 vhcurveto
          89 -21 -42 19 -83 117 callgsubr
          47 29 20 29 11 hvcurveto
          7 hlineto
          -194 -7 -4 callsubr
        </CharString>
        <CharString name="nine.dnom">
          -88 -4 103 callsubr
          -4 -44 callgsubr
        </CharString>
        <CharString name="nine.numr">
          -88 304 103 callsubr
          304 -44 callgsubr
        </CharString>
        <CharString name="nine.ss01">
          62 21 -21 263 93 246 94 hstem
          25 104 113 104 vstem
          76 hmoveto
          111 hlineto
          44 63 115 168 224 vvcurveto
          161 -23 80 -136 -136 -26 -79 -139 -132 16 -83 105 35 20 8 15 13 vhcurveto
          5 -4 -38 -133 -74 -103 -31 -40 rlinecurve
          110 350 rmoveto
          -41 -16 0 122 109 11 15 46 44 12 -9 -123 -107 -17 -7 -39 hvcurveto
          endchar
        </CharString>
        <CharString name="nine.tnum">
          72 -8 95 174 95 246 94 hstem
          32 99 112 100 vstem
          163 -8 rmoveto
          86 47 27 69 24 hvcurveto
          19 57 4 84 118 vvcurveto
          139 -4 87 -17 45 vhcurveto
          63 -26 -41 15 -71 117 callgsubr
          49 28 20 29 10 hvcurveto
          8 hlineto
          -194 -8 -4 callsubr
        </CharString>
        <CharString name="notequal">
          132 125 88 81 88 hstem
          52 337 vstem
          194 125 rmoveto
          195 88 -154 hlineto
          42 81 rlineto
          112 88 -71 hlineto
          46 91 rlineto
          -76 hlineto
          -46 -91 rlineto
          -190 -88 149 hlineto
          -42 -81 rlineto
          -107 -88 66 hlineto
          -44 -88 rlineto
          77 hlineto
          endchar
        </CharString>
        <CharString name="ntilde">
          66 21 -27 callsubr
          96 -77 callgsubr
          39 98 -73 61 115 98 -80 61 callgsubr
          hintmask 1010011001000000
          318 -51 callgsubr
          hintmask 1010100110000000
          -103 callgsubr
          hintmask 1010011001000000
          -94 callgsubr
          hintmask 1001101010000000
          -78 -743 rmoveto
          98 337 hlineto
          0 callgsubr
          hintmask 1100101010000000
          -26 callgsubr
          hintmask 1010101010000000
          -79 callgsubr
          endchar
        </CharString>
        <CharString name="numbersign">
          138 21 -21 188 74 162 74 190 -20 hstem
          37 378 vstem
          234 hmoveto
          71 hlineto
          18 188 rlineto
          76 74 -70 hlineto
          17 162 rlineto
          69 74 -62 hlineto
          19 190 rlineto
          -71 hlineto
          -20 -190 rlineto
          -89 hlineto
          19 190 rlineto
          -71 hlineto
          -19 -190 rlineto
          -68 -74 62 hlineto
          -18 -162 rlineto
          -60 -74 55 hlineto
          -19 -188 rlineto
          71 hlineto
          19 188 rlineto
          89 hlineto
          23 236 rmoveto
          -17 -162 rlineto
          -90 hlineto
          18 162 rlineto
          endchar
        </CharString>
        <CharString name="o">
          55 -60 callgsubr
          -1 callsubr
          182 -8 -105 callgsubr
          endchar
        </CharString>
        <CharString name="oacute">
          55 128 callgsubr
          110 98 vstem
          133 -84 callgsubr
          49 -612 -105 callgsubr
          endchar
        </CharString>
        <CharString name="oacute.loclPLK">
          55 128 callgsubr
          110 98 vstem
          141 599 -73 callsubr
          41 -612 -105 callgsubr
          endchar
        </CharString>
        <CharString name="obreve">
          55 -60 callgsubr
          92 60 hstemhm
          29 98 -57 65 92 65 -55 98 hintmask 00000000
          hintmask 11101100
          292 -65 callgsubr
          hintmask 11110010
          -110 -751 -105 callgsubr
          endchar
        </CharString>
        <CharString name="ocircumflex">
          55 122 callsubr
          110 98 vstem
          68 615 -107 callgsubr
          114 -630 -105 callgsubr
          endchar
        </CharString>
        <CharString name="odieresis">
          55 -60 callgsubr
          124 90 hstemhm
          29 98 -69 88 75 88 -72 98 hintmask 00000000
          hintmask 11101100
          58 642 -89 callsubr
          hintmask 11110010
          -39 -740 -105 callgsubr
          endchar
        </CharString>
        <CharString name="oe">
          252 -8 84 150 68 141 83 hstem
          131 callsubr
          106 91 vstem
          532 255 rmoveto
          196 -3 67 -138 -52 -30 -13 -31 -20 vhcurveto
          33 -20 -33 11 -54 -25 callgsubr
          54 33 12 33 20 hvcurveto
          -33 21 32 -12 52 hhcurveto
          47 54 6 7 28 hvcurveto
          78 vlineto
          -4 -19 -59 -3 -29 hhcurveto
          -76 -5 21 129 hvcurveto
          197 hlineto
          -350 -150 rmoveto
          -49 callgsubr
          161 4 19 51 52 3 -19 -161 -162 -3 -17 -52 hvcurveto
          208 358 rmoveto
          42 9 -10 -120 hvcurveto
          -10 -106 vlineto
          127 6 13 49 vhcurveto
          endchar
        </CharString>
        <CharString name="ogonek">
          -182 -196 58 -58 200 hstemhm
          0 76 hintmask 10100000
          127 -193 rmoveto
          -4 callgsubr
        </CharString>
        <CharString name="ograve">
          55 128 callgsubr
          110 98 vstem
          145 599 -90 callgsubr
          85 -746 -105 callgsubr
          endchar
        </CharString>
        <CharString name="ohorn">
          105 callsubr
          hstemhm
          131 callsubr
          -30 66 hintmask 00000000
          hintmask 10110100
          305 133 callsubr
          -8 hlineto
          hintmask 11011000
          -66 callsubr
          hintmask 10111000
          74 callgsubr
          hintmask 10110100
          20 callgsubr
          hintmask 11011000
          -189 -525 -72 callsubr
        </CharString>
        <CharString name="ohungarumlaut">
          55 -60 callgsubr
          94 116 -1 callsubr
          103 612 -82 callsubr
          -34 -625 -105 callgsubr
          endchar
        </CharString>
        <CharString name="omacron">
          55 -60 callgsubr
          134 91 hstemhm
          29 98 -27 165 -28 98 137 callsubr
          100 652 -50 callgsubr
          hintmask 11110100
          82 -751 -105 callgsubr
          endchar
        </CharString>
        <CharString name="one">
          -63 118 callsubr
          96 105 vstem
          96 hmoveto
          105 688 -82 hlineto
          -102 -61 rlineto
          -99 vlineto
          79 36 rlineto
          endchar
        </CharString>
        <CharString name="one.dnom">
          -160 21 -21 hstem
          50 67 vstem
          50 hmoveto
          88 callgsubr
        </CharString>
        <CharString name="one.numr">
          -160 308 379 hstem
          50 67 vstem
          50 308 rmoveto
          88 callgsubr
        </CharString>
        <CharString name="one.tnum">
          72 0 95 593 -20 hstem
          152 104 vstem
          55 hmoveto
          294 95 -93 593 -81 hlineto
          -119 -65 rlineto
          -98 vlineto
          96 42 rlineto
          -472 -97 vlineto
          endchar
        </CharString>
        <CharString name="oneeighth">
          243 91 callsubr
          119 50 304 -20 hstemhm
          85 67 158 64 70 64 -63 66 hintmask 1011111100000000
          -11 callgsubr
          hintmask 0111111100000000
          -17 -608 rmoveto
          -7 callsubr
          hintmask 1011111010000000
          62 -692 rmoveto
          76 26 29 75 64 -18 20 -32 9 hvcurveto
          2 vlineto
          hintmask 1011111100000000
          31 9 16 26 55 vvcurveto
          75 -31 24 -68 -69 -30 -24 -75 -55 15 -26 31 -9 vhcurveto
          -2 vlineto
          -32 -9 -16 -20 -64 vvcurveto
          hintmask 1011111010000000
          -75 25 -29 76 vhcurveto
          hintmask 1011111100000000
          219 vmoveto
          -30 -5 9 49 51 4 10 31 30 5 -10 -51 -49 -4 -9 -31 hvcurveto
          hintmask 1011111010000000
          -170 vmoveto
          -30 -6 10 52 54 5 8 31 31 5 -8 -54 -52 -6 -10 -30 hvcurveto
          endchar
        </CharString>
        <CharString name="onehalf">
          231 0 61 257 62 308 -20 hstem
          85 67 173 67 40 66 vstem
          -11 callgsubr
          262 80 rmoveto
          -279 -688 rlineto
          63 hlineto
          278 688 rlineto
          -17 -616 rmoveto
          37 -3 15 18 13 vhcurveto
          16 12 20 13 13 9 rrcurveto
          23 15 19 18 71 vvcurveto
          98 -41 7 -48 -23 -33 -3 -6 -25 vhcurveto
          -57 vlineto
          3 33 19 1 14 hhcurveto
          32 6 -6 -42 -26 -5 -14 -14 -9 hvcurveto
          -14 -10 -20 -13 -22 -15 rrcurveto
          -30 -21 -2 -25 -96 vvcurveto
          -41 173 61 -106 vlineto
          endchar
        </CharString>
        <CharString name="onequarter">
          209 0 138 -62 62 550 -20 hstemhm
          85 67 235 67 hintmask 10111000
          -11 callgsubr
          -17 -608 rmoveto
          -7 callsubr
          40 -688 rmoveto
          67 hlineto
          hintmask 01111000
          76 25 vlineto
          hintmask 10111000
          62 -25 113 -48 vlineto
          -17 -113 rlineto
          -47 hlineto
          62 235 rlineto
          -67 hlineto
          hintmask 01111000
          -56 -247 rlineto
          -50 106 vlineto
          endchar
        </CharString>
        <CharString name="ordfeminine">
          -27 313 64 103 55 96 65 hstem
          22 72 73 77 vstem
          102 307 rmoveto
          26 25 16 34 9 hvcurveto
          6 hlineto
          4 -44 rlineto
          72 235 hlineto
          115 -25 33 -88 -30 -35 -4 -5 -29 vhcurveto
          -62 vlineto
          4 30 22 2 20 hhcurveto
          52 6 -8 -69 hvcurveto
          -22 vlineto
          1 -17 -25 2 -16 hhcurveto
          -67 -20 -29 -85 -80 18 -34 62 hvcurveto
          25 70 rmoveto
          -28 -5 13 37 45 8 8 25 hvcurveto
          40 -22 hlineto
          -24 0 -22 -5 -11 vhcurveto
          -17 -8 -10 -7 -17 hhcurveto
          endchar
        </CharString>
        <CharString name="ordmasculine">
          -19 308 66 257 65 hstem
          31 76 77 75 vstem
          145 308 rmoveto
          104 10 37 157 157 -10 37 -104 -104 -10 -37 -157 -157 10 -37 104 hvcurveto
          66 vmoveto
          -35 -3 12 116 116 3 13 35 36 3 -13 -116 -116 -3 -12 -36 hvcurveto
          endchar
        </CharString>
        <CharString name="orn.001">
          28 223 240 hstem
          48 241 vstem
          289 341 rmoveto
          105 -6 17 -117 -112 -6 -17 -105 -102 6 -16 112 117 6 16 102 vhcurveto
          endchar
        </CharString>
        <CharString name="orn.002">
          240 234 60 100 60 hstem
          44 110 callgsubr
          100 60 vstem
          210 -33 callgsubr
          63 101 -25 callsubr
          121 87 58 callsubr
          -29 -21 22 28 29 21 21 29 28 22 -21 -29 -28 -22 -22 -28 hvcurveto
          endchar
        </CharString>
        <CharString name="orn.003">
          106 46 596 hstem
          45 110 callgsubr
          vstem
          211 -33 callgsubr
          63 101 -25 callsubr
          63 101 12 callgsubr
          endchar
        </CharString>
        <CharString name="orn.007">
          28 222 241 hstem
          48 241 vstem
          168 222 rmoveto
          67 54 53 67 67 -54 54 -67 -67 -53 -54 -67 -67 53 -53 67 hvcurveto
          endchar
        </CharString>
        <CharString name="orn.010">
          485 75 callsubr
          45 704 vstem
          397 hmoveto
          352 348 hlineto
          107 callgsubr
          -207 -145 -143 -205 -204 145 -144 207 vhcurveto
          endchar
        </CharString>
        <CharString name="orn.015">
          256 76 callgsubr
          -1 187 98 callsubr
          187 60 -187 hlineto
          187 -272 rmoveto
          213 212 rlineto
          167 60 -192 hlineto
          -188 -187 rlineto
          endchar
        </CharString>
        <CharString name="orn.016">
          256 76 callgsubr
          -1 567 98 callsubr
          567 60 -567 hlineto
          endchar
        </CharString>
        <CharString name="orn.017">
          -249 118 callsubr
          0 60 vstem
          0 vmoveto
          60 688 -60 hlineto
          endchar
        </CharString>
        <CharString name="orn.018">
          483 46 596 hstem
          45 110 callgsubr
          102 110 callgsubr
          vstem
          211 -33 callgsubr
          370 hmoveto
          99 62 67 110 126 vvcurveto
          125 -67 111 -99 62 vhcurveto
          -32 -51 rlineto
          82 -51 56 -92 -104 vvcurveto
          -105 -55 -91 -83 -52 vhcurveto
          -275 51 -25 callsubr
          244 hmoveto
          65 41 44 73 83 vvcurveto
          83 -44 73 -66 41 vhcurveto
          -32 -51 rlineto
          49 -31 33 -54 -61 vvcurveto
          -62 -33 -53 -48 -31 vhcurveto
          -149 50 12 callgsubr
          118 hmoveto
          17 callsubr
        </CharString>
        <CharString name="orn.019">
          240 234 60 100 60 hstem
          44 60 100 110 callgsubr
          vstem
          338 -28 callgsubr
          -89 36 58 callsubr
          -28 -22 22 28 29 22 21 28 29 21 -21 -29 -28 -21 -22 -29 hvcurveto
          endchar
        </CharString>
        <CharString name="orn.020">
          106 46 596 hstem
          70 110 callgsubr
          vstem
          204 -28 callgsubr
          -31 50 rmoveto
          17 callsubr
        </CharString>
        <CharString name="orn.021">
          444 696 -20 hstem
          45 663 vstem
          376 -116 rmoveto
          235 122 97 207 151 vvcurveto
          188 -149 144 -183 -183 -148 -144 -188 -149 97 -209 234 -122 vhcurveto
          endchar
        </CharString>
        <CharString name="orn.022">
          80 220 246 hstem
          48 301 vstem
          171 220 rmoveto
          98 80 83 40 40 -80 83 -98 -81 -42 -55 -68 -68 42 -55 81 hvcurveto
          endchar
        </CharString>
        <CharString name="oslash">
          135 callsubr
          hstemhm
          131 callsubr
          hintmask 00000000
          hintmask 01101100
          29 -55 rmoveto
          89 hlineto
          19 53 rlineto
          hintmask 10011100
          21 callsubr
          hintmask 01101100
          62 callgsubr
          hintmask 10101100
          123 43 -72 callsubr
        </CharString>
        <CharString name="oslashacute">
          135 callsubr
          108 144 hstemhm
          131 callsubr
          hintmask 10101110
          141 -84 callgsubr
          hintmask 01101110
          -112 -659 rmoveto
          89 hlineto
          19 53 rlineto
          hintmask 10011110
          21 callsubr
          hintmask 01101110
          62 callgsubr
          hintmask 10101110
          123 43 -72 callsubr
        </CharString>
        <CharString name="otilde">
          55 -60 callgsubr
          96 41 callsubr
          -71 61 120 98 -85 60 hintmask 00000000
          hintmask 11011001
          310 743 -16 callgsubr
          -128 -751 -105 callgsubr
          endchar
        </CharString>
        <CharString name="p">
          125 callgsubr
          80 -80 131 callgsubr
          hintmask 11001110
          39 -196 rmoveto
          98 hlineto
          hintmask 10101110
          254 8 vlineto
          hintmask 11001110
          -44 10 26 -22 50 127 callsubr
          -36 -40 -14 -58 -11 hvcurveto
          -7 hlineto
          hintmask 11010110
          100 callgsubr
          hlineto
          153 -430 rmoveto
          -25 -17 10 42 -8 hvcurveto
          hintmask 11001110
          -4 19 -1 40 0 64 0 61 1 39 27 flex1
          38 7 17 10 26 hhcurveto
          48 6 -12 -163 hvcurveto
          hintmask 11010110
          -163 -6 -12 -48 vhcurveto
          endchar
        </CharString>
        <CharString name="paragraph">
          72 -20 callsubr
          hstem
          120 83 43 84 vstem
          120 -144 rmoveto
          83 832 -83 hlineto
          -88 -11 -31 -203 -203 11 -29 88 hvcurveto
          126 -366 rmoveto
          84 832 -84 hlineto
          endchar
        </CharString>
        <CharString name="parenleft">
          -70 -150 893 hstem
          45 99 vstem
          136 -150 rmoveto
          86 hlineto
          -51 106 -27 48 293 vvcurveto
          293 26 47 52 106 vhcurveto
          -86 hlineto
          -66 -126 -25 -58 -262 vvcurveto
          -263 24 -51 67 -133 vhcurveto
          endchar
        </CharString>
        <CharString name="parenleft.ss02">
          31 callsubr
          -204 145 -144 207 hvcurveto
          endchar
        </CharString>
        <CharString name="parenright">
          -70 -150 893 hstem
          95 99 vstem
          17 -150 rmoveto
          86 hlineto
          67 133 24 51 263 vvcurveto
          262 -25 58 -66 126 vhcurveto
          -86 hlineto
          52 -106 26 -47 -293 vvcurveto
          -293 -27 -48 -51 -106 vhcurveto
          endchar
        </CharString>
        <CharString name="parenright.ss02">
          88 75 callsubr
          0 352 vstem
          0 vmoveto
          207 145 144 204 107 callgsubr
          hvcurveto
          endchar
        </CharString>
        <CharString name="partialdiff">
          55 -60 callgsubr
          -1 callsubr
          134 callgsubr
          58 -2 52 -7 72 hvcurveto
          -11 112 -39 116 -53 70 rrcurveto
          -99 -4 hlineto
          41 -61 35 -76 18 -99 -3 -2 rcurveline
          11 -15 -20 6 -25 hhcurveto
          18 callsubr
          -35 -144 -157 -1 -22 -54 hvcurveto
          endchar
        </CharString>
        <CharString name="percent">
          299 -8 59 -30 -21 312 59 -54 59 261 59 -8 -20 hstemhm
          43 72 69 73 95 73 68 73 -40 callgsubr
          hintmask 0110101111000000
          150 312 46 callsubr
          -26 -312 rmoveto
          61 hlineto
          hintmask 1010011111000000
          299 688 rlineto
          -60 hlineto
          -274 -317 rmoveto
          -28 -7 6 126 hvcurveto
          hintmask 1001101111000000
          128 7 6 28 29 5 -6 -128 vhcurveto
          hintmask 1010011111000000
          -126 -5 -6 -29 vhcurveto
          hintmask 1001101111000000
          309 -379 46 callsubr
          59 vmoveto
          -28 -6 6 126 128 6 6 28 29 5 -6 -128 -126 -5 -6 -29 hvcurveto
          endchar
        </CharString>
        <CharString name="period">
          -107 0 107 callsubr
          hmoveto
          -91 callgsubr
          endchar
        </CharString>
        <CharString name="periodcentered">
          -107 244 107 callsubr
          244 -94 callsubr
        </CharString>
        <CharString name="perthousand">
          443 -8 54 -25 -21 276 54 28 54 230 54 -8 -20 hstemhm
          43 66 61 66 60 67 60 67 26 66 61 66 -40 callgsubr
          hintmask 0101101100000000
          140 358 rmoveto
          83 108 callgsubr
          -83 -84 -13 -36 -133 -133 13 -36 84 hvcurveto
          -55 -358 rmoveto
          60 hlineto
          hintmask 0001011100000000
          299 688 rlineto
          -60 hlineto
          -244 -276 rmoveto
          -26 -5 4 111 hvcurveto
          hintmask 0000101100000000
          111 5 4 26 25 5 -4 -111 vhcurveto
          hintmask 0001011100000000
          -111 -5 -4 -25 vhcurveto
          hintmask 1010000011000000
          253 -420 rmoveto
          84 108 callgsubr
          -84 -83 -14 -36 -133 -133 14 -36 83 hvcurveto
          hintmask 1010000000110000
          219 hmoveto
          84 108 callgsubr
          -84 -83 -13 -36 -133 -133 13 -36 83 hvcurveto
          hintmask 1010000011000000
          -219 54 rmoveto
          126 callsubr
          4 -4 -111 -112 -4 -3 -26 hvcurveto
          hintmask 1010000000110000
          219 hmoveto
          126 callsubr
          5 -4 -111 -112 -5 -3 -26 hvcurveto
          endchar
        </CharString>
        <CharString name="pi">
          64 21 -21 432 78 hstem
          39 98 99 98 vstem
          236 hmoveto
          98 510 -295 -510 98 432 99 hlineto
          endchar
        </CharString>
        <CharString name="plus">
          132 210 87 hstem
          177 87 vstem
          177 85 rmoveto
          87 125 125 87 -125 125 -87 -125 -125 -87 125 hlineto
          endchar
        </CharString>
        <CharString name="plusminus">
          132 47 88 191 88 hstemhm
          52 337 -212 87 hintmask 11010000
          177 201 rmoveto
          87 125 125 88 -125 125 -87 -125 -125 -88 125 hlineto
          hintmask 11100000
          -125 -279 rmoveto
          337 88 -337 hlineto
          endchar
        </CharString>
        <CharString name="product">
          103 593 95 hstem
          44 103 118 104 vstem
          265 -189 rmoveto
          104 877 -325 -877 103 782 118 hlineto
          endchar
        </CharString>
        <CharString name="q">
          125 callgsubr
          -20 callgsubr
          26 callsubr
          hintmask 11000111
          236 -196 rmoveto
          98 hlineto
          hintmask 11001011
          706 -92 vlineto
          hintmask 11010011
          -4 -64 rlineto
          -7 hlineto
          hintmask 11000111
          58 -12 -39 14 -37 hhcurveto
          -90 -24 -50 -213 -205 19 -58 94 hvcurveto
          hintmask 10100111
          51 26 82 callgsubr
          hlineto
          hintmask 11000111
          -55 22 rmoveto
          -48 -6 12 163 163 6 12 48 28 16 -10 -35 6 hvcurveto
          5 -32 0 -39 0 -59 0 -67 -1 -39 -22 flex1
          -37 -8 -16 -10 -26 hhcurveto
          endchar
        </CharString>
        <CharString name="question">
          -52 callgsubr
        </CharString>
        <CharString name="question.case">
          -52 callgsubr
        </CharString>
        <CharString name="questiondown">
          -19 -186 95 491 110 hstemhm
          35 104 1 107 -99 91 hintmask 00000000
          hintmask 11010000
          140 400 55 callgsubr
          hintmask 11101000
          33 -696 rmoveto
          34 48 7 8 34 hvcurveto
          88 vlineto
          -5 -31 -30 -3 -17 hhcurveto
          -59 -13 20 64 72 11 11 40 30 hvcurveto
          11 121 callsubr
          -91 -61 vlineto
          -50 -1 -8 -30 -24 vhcurveto
          hintmask 11101000
          -30 -25 rlineto
          -49 -41 -3 -45 -89 vvcurveto
          -116 55 -35 83 vhcurveto
          endchar
        </CharString>
        <CharString name="questiondown.case">
          5 -8 95 491 110 hstemhm
          34 104 1 108 -99 90 hintmask 00000000
          hintmask 11010000
          139 578 rmoveto
          -91 callgsubr
          hintmask 11101000
          33 -696 rmoveto
          35 47 7 8 35 hvcurveto
          88 vlineto
          -5 -31 -31 -3 -17 hhcurveto
          -59 -13 20 64 72 12 11 40 30 hvcurveto
          10 121 callsubr
          -90 -61 vlineto
          -50 -2 -8 -29 -24 vhcurveto
          hintmask 11101000
          -30 -25 rlineto
          -50 -41 -3 -45 -89 vvcurveto
          -116 56 -35 82 vhcurveto
          endchar
        </CharString>
        <CharString name="quotedbl">
          1 434 254 hstem
          38 95 45 94 vstem
          49 434 rmoveto
          72 hlineto
          12 192 rlineto
          62 -95 -62 vlineto
          151 -192 rmoveto
          72 hlineto
          11 192 rlineto
          62 -94 -62 vlineto
          endchar
        </CharString>
        <CharString name="quotedblbase">
          39 -131 45 86 105 hstem
          46 103 49 103 vstem
          39 -86 rmoveto
          6 callsubr
          152 hmoveto
          6 callsubr
          endchar
        </CharString>
        <CharString name="quotedblleft">
          30 452 105 85 46 hstem
          41 103 48 104 37 callgsubr
          151 -83 rmoveto
          104 105 -39 14 hlineto
          54 5 17 41 vhcurveto
          46 vlineto
          -97 -14 -34 -119 hvcurveto
          endchar
        </CharString>
        <CharString name="quotedblright">
          30 452 46 85 105 hstem
          43 104 48 103 34 callsubr
          152 hmoveto
          -46 vlineto
          97 13 34 119 hvcurveto
          83 -103 -105 39 -14 vlineto
          -54 -5 -17 -41 vhcurveto
          endchar
        </CharString>
        <CharString name="quoteleft">
          -122 452 105 85 46 hstem
          41 103 37 callgsubr
          endchar
        </CharString>
        <CharString name="quoteright">
          -122 452 46 85 105 hstem
          43 104 34 callsubr
          endchar
        </CharString>
        <CharString name="quotesinglbase">
          -113 -131 45 86 105 hstem
          46 103 vstem
          39 -86 rmoveto
          6 callsubr
          endchar
        </CharString>
        <CharString name="quotesingle">
          100 callsubr
          49 434 rmoveto
          72 hlineto
          12 192 rlineto
          62 -95 -62 vlineto
          endchar
        </CharString>
        <CharString name="r">
          42 callgsubr
          hstemhm
          39 98 hintmask 10110000
          39 hmoveto
          56 callsubr
          hintmask 11010000
          -48 callsubr
          hintmask 10110000
          94 callsubr
          endchar
        </CharString>
        <CharString name="racute">
          42 callgsubr
          109 144 hstemhm
          39 98 hintmask 10111000
          85 -84 callgsubr
          -46 -604 rmoveto
          56 callsubr
          hintmask 11011000
          -48 callsubr
          hintmask 10111000
          94 callsubr
          endchar
        </CharString>
        <CharString name="radical">
          151 -106 876 hstem
          9 423 vstem
          156 -106 rmoveto
          156 hlineto
          120 876 rlineto
          -104 hlineto
          -98 -765 -71 331 -150 -61 20 -68 46 18 rlineto
          endchar
        </CharString>
        <CharString name="rcaron">
          42 callgsubr
          125 128 hstemhm
          39 98 hintmask 10111000
          76 615 -99 callgsubr
          27 -736 rmoveto
          56 callsubr
          hintmask 11011000
          -48 callsubr
          hintmask 10111000
          94 callsubr
          endchar
        </CharString>
        <CharString name="rcommaaccent">
          -56 14 callgsubr
          413 105 -8 -20 hstemhm
          39 98 -95 104 hintmask 11101100
          39 hmoveto
          56 callsubr
          hintmask 11110100
          -48 callsubr
          hintmask 11101100
          94 callsubr
          hintmask 11101010
          -4 -723 rmoveto
          -46 vlineto
          hintmask 11101100
          97 14 31 104 hvcurveto
          62 vlineto
          hintmask 11101010
          -104 -83 39 -14 hlineto
          -41 -5 -13 -41 vhcurveto
          endchar
        </CharString>
        <CharString name="registered">
          179 -8 40 261 54 126 55 128 40 hstem
          52 41 69 59 52 58 64 41 vstem
          244 696 rmoveto
          -185 -7 -39 -313 -312 7 -40 185 185 7 40 312 313 -7 39 -185 hvcurveto
          -664 30 callsubr
          87 379 rmoveto
          73 -8 44 -71 vhcurveto
          -90 -368 59 133 26 hlineto
          31 -133 rlineto
          60 hlineto
          -37 146 rlineto
          26 19 4 39 47 vvcurveto
          -87 -64 rmoveto
          -23 126 23 hlineto
          27 2 -13 -49 -52 -3 -12 -26 hvcurveto
          endchar
        </CharString>
        <CharString name="rightCloseDialog">
          272 76 callgsubr
          -1 187 378 60 vstem
          624 688 rmoveto
          -625 -60 565 -568 -190 hlineto
          -188 -187 rlineto
          -85 vlineto
          213 212 rlineto
          165 hlineto
          60 hlineto
          -438 60 rmoveto
          -187 -60 187 hlineto
          endchar
        </CharString>
        <CharString name="rightOpenDialog">
          272 76 callgsubr
          565 60 vstem
          625 688 rmoveto
          -626 -60 566 -568 -566 -60 566 hlineto
          60 hlineto
          endchar
        </CharString>
        <CharString name="ring">
          -100 616 55 90 54 hstem
          -2 69 76 67 vstem
          105 616 -83 callsubr
          endchar
        </CharString>
        <CharString name="s">
          -7 -60 callgsubr
          hstem
          19 98 72 95 vstem
          147 -8 rmoveto
          -98 callsubr
          -8 28 50 -7 41 hhcurveto
          endchar
        </CharString>
        <CharString name="sacute">
          -7 53 callsubr
          19 98 72 95 vstem
          110 -84 callgsubr
          37 -612 rmoveto
          -98 callsubr
          -8 28 50 -7 41 hhcurveto
          endchar
        </CharString>
        <CharString name="sacute.loclPLK">
          -7 53 callsubr
          19 98 72 95 vstem
          110 599 -73 callsubr
          37 -612 rmoveto
          -98 callsubr
          -8 28 50 -7 41 hhcurveto
          endchar
        </CharString>
        <CharString name="scaron">
          -7 53 callgsubr
          19 98 72 95 vstem
          103 615 -99 callgsubr
          108 -744 rmoveto
          -98 callsubr
          -8 28 50 -7 41 hhcurveto
          endchar
        </CharString>
        <CharString name="scedilla">
          -7 -7 83 -5 callgsubr
          hstem
          19 98 72 95 vstem
          284 152 rmoveto
          115 -31 18 -41 8 vhcurveto
          -63 13 rlineto
          -27 5 -5 5 55 vvcurveto
          51 19 12 41 26 38 -3 -6 23 vhcurveto
          78 vlineto
          9 -24 -45 6 -36 hhcurveto
          -89 -51 -39 -113 -94 18 -36 44 -9 hvcurveto
          71 -14 rlineto
          29 -6 8 -3 -60 vvcurveto
          -48 -19 -20 -49 -29 -45 4 4 -19 vhcurveto
          -77 vlineto
          21 -6 34 -6 33 113 callsubr
          69 10 33 44 104 vvcurveto
          endchar
        </CharString>
        <CharString name="scircumflex">
          -7 53 callgsubr
          19 98 72 95 vstem
          35 615 -107 callgsubr
          112 -630 rmoveto
          -98 callsubr
          -8 28 50 -7 41 hhcurveto
          endchar
        </CharString>
        <CharString name="scommaaccent">
          -7 -10 callsubr
          54 -36 callgsubr
          hstemhm
          19 98 -13 104 -19 95 hintmask 11110100
          147 -8 rmoveto
          hintmask 11111010
          -98 callsubr
          hintmask 11110100
          -8 28 50 -7 41 hhcurveto
          -50 -205 -83 callgsubr
        </CharString>
        <CharString name="second">
          -1 374 314 hstemhm
          37 98.5 38.5 99 hintmask 00000000
          hintmask 11100000
          86 callgsubr
          123 -314 rmoveto
          72 hlineto
          31 192 6 122 rlineto
          -95 hlineto
          endchar
        </CharString>
        <CharString name="section">
          94 -170 95 677 94 hstemhm
          31 104 -68 103 64 102 -67 103 hintmask 11100100
          183 -170 rmoveto
          hintmask 11101000
          97 56 42 127 60 -11 32 -27 23 hvcurveto
          hintmask 11010100
          48 16 26 42 94 vvcurveto
          123 -61 24 -49 22 vhcurveto
          -64 29 rlineto
          -20 9 -8 9 50 vvcurveto
          58 20 12 42 33 44 -5 -5 24 vhcurveto
          87 vlineto
          8 -20 -44 9 -49 hhcurveto
          -97 -56 -42 -127 -60 12 -32 26 -24 hvcurveto
          hintmask 11101000
          -47 -17 -27 -40 -94 vvcurveto
          -120 59 -24 44 -20 vhcurveto
          69 -33 rlineto
          23 -11 8 -6 -51 vvcurveto
          -59 -21 -11 -42 -31 -44 4 5 -25 vhcurveto
          -87 vlineto
          hintmask 11100100
          -10 25 47 -7 40 hhcurveto
          54 331 rmoveto
          -3 -1 0 3 -7 hvcurveto
          -66 33 rlineto
          -16 8 -9 17 55 vvcurveto
          58 16 31 16 2 1 -1 -5 10 vhcurveto
          69 -33 rlineto
          11 -6 9 -18 -54 vvcurveto
          -59 -17 -29 -15 vhcurveto
          endchar
        </CharString>
        <CharString name="semicolon">
          -107 -139 49 90 110 290 110 hstem
          46 109 vstem
          47 400 rmoveto
          -91 callgsubr
          -8 -600 35 callgsubr
        </CharString>
        <CharString name="seven">
          17 21 -21 593 95 hstem
          16 300 vstem
          49 hmoveto
          107 hlineto
          160 605 rlineto
          83 -300 -95 194 vlineto
          endchar
        </CharString>
        <CharString name="seven.dnom">
          -123 21 -21 325 54 hstem
          13 171 vstem
          28 hmoveto
          50 callsubr
          endchar
        </CharString>
        <CharString name="seven.numr">
          -123 633 54 hstem
          13 171 vstem
          28 308 rmoveto
          50 callsubr
          endchar
        </CharString>
        <CharString name="seven.tnum">
          72 21 -21 593 95 hstem
          42 307 vstem
          74 hmoveto
          108 hlineto
          167 605 rlineto
          83 -307 -95 200 vlineto
          endchar
        </CharString>
        <CharString name="seveneighths">
          204 91 callsubr
          119 50 249 54 hstemhm
          13 171 115 63 callsubr
          -40 callgsubr
          hintmask 0111111010000000
          55 hmoveto
          -7 callsubr
          -306 -380 rmoveto
          50 callsubr
          hintmask 1011111001000000
          283 -637 rmoveto
          -2 callgsubr
          hintmask 1011110110000000
          -44 callsubr
          hintmask 1011111010000000
          -31 -9 -17 -20 -64 vvcurveto
          hintmask 1011111001000000
          -75 25 -29 76 vhcurveto
          hintmask 1011110110000000
          -38 callsubr
          hintmask 1011111001000000
          -41 callgsubr
        </CharString>
        <CharString name="six">
          58 -8 94 246 95 174 95 hstem
          32 101 111 99 vstem
          192 -8 rmoveto
          124 27 57 178 182 -34 18 -82 -53 -25 -25 -24 -7 hvcurveto
          -9 hlineto
          194 8 29 90 26 41 -4 -6 28 vhcurveto
          87 vlineto
          10 -34 -47 8 -32 hhcurveto
          -87 -47 -28 -84 -28 hvcurveto
          -15 -44 -4 -83 -116 vvcurveto
          -119 3 -81 9 -36 vhcurveto
          -95 26 42 -18 80 hhcurveto
          -2 94 rmoveto
          -46 -11 13 124 93 7 16 50 45 9 -4 -119 -110 -9 -13 -45 hvcurveto
          endchar
        </CharString>
        <CharString name="six.dnom">
          -88 -4 51 135 53 95 54 hstem
          16 64 69 63 vstem
          117 -4 rmoveto
          78 17 34 95 100 -23 10 -51 -36 callsubr
        </CharString>
        <CharString name="six.numr">
          -88 304 51 135 25 -25 53 95 54 hstemhm
          16 64 69 63 hintmask 11011100
          117 304 rmoveto
          78 17 34 95 hvcurveto
          hintmask 10111100
          100 -23 10 -51 vhcurveto
          hintmask 11011100
          -36 callsubr
        </CharString>
        <CharString name="six.ss01">
          62 -8 94 246 93 263 -20 hstem
          25 104 113 104 vstem
          184 -8 rmoveto
          136 26 79 139 132 -16 83 -105 -34 -21 -8 -15 -13 hvcurveto
          -5 4 21 79 53 112 69 85 rlinecurve
          6 -110 vlineto
          -117 -145 -43 -168 -142 vvcurveto
          -161 23 -80 136 vhcurveto
          2 94 rmoveto
          -44 -13 10 122 107 17 7 40 41 15 1 -123 -108 -11 -16 -45 hvcurveto
          endchar
        </CharString>
        <CharString name="six.tnum">
          72 -8 94 246 95 174 95 hstem
          37 101 112 99 vstem
          197 -8 rmoveto
          124 28 57 178 182 -35 18 -82 -40 -34 -15 -34 -11 hvcurveto
          -9 hlineto
          194 8 29 90 27 41 -4 -6 27 vhcurveto
          87 vlineto
          10 -32 -46 8 -35 hhcurveto
          -79 -46 -23 -69 -30 hvcurveto
          -21 -45 -5 -89 -129 vvcurveto
          -119 3 -80 11 -42 vhcurveto
          -90 23 43 -18 80 hhcurveto
          -2 94 rmoveto
          -45 -11 13 124 93 6 16 50 45 10 -4 -119 -110 -10 -13 -45 hvcurveto
          endchar
        </CharString>
        <CharString name="slash">
          -37 -55 798 hstem
          25 222 vstem
          25 -55 rmoveto
          89 hlineto
          133 798 rlineto
          -88 hlineto
          endchar
        </CharString>
        <CharString name="space">
          -165 endchar
        </CharString>
        <CharString name="sterling">
          40 0 95 214 95 197 95 hstem
          76 104 vstem
          180 95 rmoveto
          214 98 95 -98 64 vlineto
          66 5 36 18 18 vhcurveto
          9 11 14 4 18 hhcurveto
          21 26 -3 -4 17 hvcurveto
          90 vlineto
          7 -21 -36 5 -29 hhcurveto
          -126 -23 -72 -161 hvcurveto
          -59 -46 -95 47 -214 -47 -95 286 95 vlineto
          endchar
        </CharString>
        <CharString name="summation">
          105 -189 95 687 95 hstem
          46 322 vstem
          46 -189 rmoveto
          322 95 -210 hlineto
          150 343 -150 344 rlineto
          210 95 -322 -90 hlineto
          150 -349 -150 -348 rlineto
          endchar
        </CharString>
        <CharString name="t">
          -70 82 callsubr
          hstem
          63 98 vstem
          63 hmoveto
          98 11 callgsubr
          hlineto
          endchar
        </CharString>
        <CharString name="tbar">
          -70 21 -21 223 84 119 84 hstem
          63 98 vstem
          228 426 rmoveto
          84 -67 148 -98 -148 -50 -84 50 -119 -45 -84 45 -223 98 223 64 84 -64 119 vlineto
          endchar
        </CharString>
        <CharString name="tcaron">
          -70 82 callsubr
          -76 76 178 -20 hstemhm
          63 98 109 95 hintmask 00000000
          hintmask 10111100
          256 434 24 callgsubr
          -207 -626 rmoveto
          98 hlineto
          hintmask 11011100
          11 callgsubr
          vlineto
          endchar
        </CharString>
        <CharString name="thorn">
          65 -8 88 -22 22 350 20 -20 131 callgsubr
          hintmask 10011100
          39 -189 rmoveto
          98 hlineto
          hintmask 01011100
          247 8 vlineto
          hintmask 10011100
          -44 10 25 -22 51 127 callsubr
          hvcurveto
          hintmask 10101100
          -42 -33 -19 -49 -10 hvcurveto
          -8 293 -98 hlineto
          153 -663 rmoveto
          -26 -16 9 49 -9 hvcurveto
          -3 18 -1 40 59 vvcurveto
          hintmask 10011100
          56 1 38 4 26 vhcurveto
          46 7 16 9 27 hhcurveto
          48 6 -12 -163 hvcurveto
          hintmask 10101100
          -163 -6 -12 -48 vhcurveto
          endchar
        </CharString>
        <CharString name="three">
          27 -8 95 214 94 206 95 hstemhm
          63 166 -30 104 -98 104 hintmask 11100100
          148 47 callsubr
          25 48 101 vvcurveto
          140 -51 38 -104 -39 -55 -6 -9 -40 vhcurveto
          -87 vlineto
          4 33 42 3 27 hhcurveto
          67 16 -12 -89 -90 -19 -15 -40 hvcurveto
          hintmask 11110000
          -77 -94 hlineto
          hintmask 11100100
          77 hlineto
          49 16 -20 -91 -91 -21 -12 -64 -24 -43 3 5 -40 hvcurveto
          -87 vlineto
          -9 37 57 -7 41 hhcurveto
          endchar
        </CharString>
        <CharString name="three.dnom">
          -107 -4 78 callgsubr
          -4 -42 callgsubr
        </CharString>
        <CharString name="three.numr">
          -107 304 78 callgsubr
          304 -42 callgsubr
        </CharString>
        <CharString name="three.tnum">
          72 -8 95 214 94 206 95 hstemhm
          89 166 -30 105 -99 104 hintmask 11100100
          174 47 callsubr
          26 48 101 vvcurveto
          140 -51 38 -105 -38 -55 -6 -9 -41 vhcurveto
          -87 vlineto
          4 34 41 3 27 hhcurveto
          67 16 -12 -89 -90 -18 -15 -40 hvcurveto
          hintmask 11110000
          -78 -94 hlineto
          hintmask 11100100
          78 hlineto
          48 16 -20 -91 -91 -21 -12 -63 -25 -42 3 5 -41 hvcurveto
          -87 vlineto
          -9 37 57 -7 41 hhcurveto
          endchar
        </CharString>
        <CharString name="threeeighths">
          243 91 callsubr
          89 54 -24 50 90 52 112 54 -4 -20 hstemhm
          42 93 -25 68 -65 68 157 63 callsubr
          -40 callgsubr
          hintmask 1011011000110100
          88 304 rmoveto
          70 23 31 73 63 -17 22 -29 8 hvcurveto
          2 vlineto
          hintmask 1010111001010100
          28 9 15 27 55 vvcurveto
          75 -27 23 -63 -21 -31 -4 -5 -24 vhcurveto
          -50 vlineto
          3 17 26 2 16 hhcurveto
          33 6 -7 -48 -46 -7 -11 -19 hvcurveto
          hintmask 1010111010010100
          -42 -52 hlineto
          hintmask 1011011000110100
          42 hlineto
          23 6 -11 -50 -47 -7 -8 -32 -13 -24 1 4 -26 hvcurveto
          -50 vlineto
          -5 20 32 -4 25 hhcurveto
          hintmask 0110110100110100
          6 -304 rmoveto
          -7 callsubr
          hintmask 1010111000110010
          66 -692 rmoveto
          -2 callgsubr
          hintmask 1010111000101100
          -44 callsubr
          hintmask 1010111000110100
          -31 -9 -17 -20 -64 vvcurveto
          hintmask 1010111000110010
          -75 25 -29 76 vhcurveto
          hintmask 1010111000101100
          -38 callsubr
          hintmask 1010111000110010
          -41 callgsubr
        </CharString>
        <CharString name="threequarters">
          251 0 138 -62 62 170 62 104 61 100 61 -8 -20 hstemhm
          71 99 -26 68 -66 69 213 67 hintmask 1011100011000000
          44 375 rmoveto
          -58 vlineto
          -6 28 30 -3 20 hhcurveto
          68 25 81 callsubr
          hintmask 1011100101000000
          10 callgsubr
          hintmask 1011101001000000
          -46 -61 hlineto
          hintmask 1011100011000000
          83 callsubr
          68 -375 rmoveto
          63 hlineto
          hintmask 1011010011000000
          277 688 rlineto
          -61 hlineto
          37 -688 rmoveto
          67 hlineto
          hintmask 0111100011000000
          76 26 vlineto
          hintmask 1011100011000000
          62 -26 113 -47 vlineto
          -18 -113 rlineto
          -46 hlineto
          61 235 rlineto
          -67 hlineto
          hintmask 0111100011000000
          -56 -247 rlineto
          -50 106 vlineto
          endchar
        </CharString>
        <CharString name="tilde">
          -57 614 -77 callgsubr
          -1 72 callsubr
          hintmask 01110000
          253 -18 callgsubr
        </CharString>
        <CharString name="tildecomb">
          614 -77 callgsubr
          -253 72 callsubr
          hintmask 01110000
          1 -18 callgsubr
        </CharString>
        <CharString name="tildecomb.case">
          759 -77 callgsubr
          -253 72 callsubr
          hintmask 01110000
          1 23 callgsubr
          hintmask 10110000
          -103 callgsubr
          hintmask 01110000
          -94 callgsubr
          endchar
        </CharString>
        <CharString name="trademark">
          143 386 71 188 43 hstem
          74 45 77 44 123 45 vstem
          74 386 rmoveto
          45 259 45 43 -136 -43 46 hlineto
          122 -259 rmoveto
          44 236 4 hlineto
          31 -236 rlineto
          54 hlineto
          30 236 rlineto
          4 -236 45 302 -75 hlineto
          -28 -231 rlineto
          -4 hlineto
          -29 231 rlineto
          -76 hlineto
          endchar
        </CharString>
        <CharString name="two">
          43 0 95 506 95 hstem
          28 104 89 103 vstem
          132 121 rmoveto
          61 0 30 6 17 vhcurveto
          4 13 8 7 11 8 33 23 -29 callgsubr
        </CharString>
        <CharString name="two.dnom">
          -98 0 127 callgsubr
          67 -38 callgsubr
        </CharString>
        <CharString name="two.numr">
          -98 308 127 callgsubr
          375 -38 callgsubr
        </CharString>
        <CharString name="two.tnum">
          72 0 95 506 95 hstem
          45 104 89 103 vstem
          149 121 rmoveto
          53 0 29 4 20 vhcurveto
          4 17 7 8 12 8 35 24 -29 callgsubr
        </CharString>
        <CharString name="u">
          -70 callsubr
          112 callgsubr
          hintmask 01011100
          243 hmoveto
          92 3 callgsubr
          -97 callgsubr
          hintmask 10011100
          -57 callsubr
          hintmask 00111100
          -78 callgsubr
          endchar
        </CharString>
        <CharString name="uacute">
          -70 callsubr
          109 144 40 callgsubr
          143 -84 callgsubr
          100 -604 -88 callsubr
        </CharString>
        <CharString name="ubreve">
          -70 callsubr
          120 60 hstemhm
          36 98 -58 65 92 65 -61 56 callgsubr
          hintmask 0101101100000000
          298 -65 callgsubr
          hintmask 0101110010000000
          -55 22 callgsubr
          hintmask 1001110010000000
          -57 callsubr
          hintmask 0011110010000000
          -78 callgsubr
          endchar
        </CharString>
        <CharString name="ucircumflex">
          -70 callsubr
          125 128 40 callgsubr
          71 615 -107 callgsubr
          172 -622 -88 callsubr
        </CharString>
        <CharString name="udieresis">
          -70 callsubr
          152 90 hstemhm
          36 98 -73 88 75 88 -75 56 callgsubr
          hintmask 0101101100000000
          61 642 -89 callsubr
          hintmask 0101110010000000
          19 -732 rmoveto
          92 3 callgsubr
          -97 callgsubr
          hintmask 1001110010000000
          -57 callsubr
          hintmask 0011110010000000
          -78 callgsubr
          endchar
        </CharString>
        <CharString name="ugrave">
          -70 callsubr
          109 144 40 callgsubr
          154 599 -90 callgsubr
          137 -738 -88 callsubr
        </CharString>
        <CharString name="uhorn">
          16 callgsubr
          112 callgsubr
          -8 66 hintmask 00000000
          hintmask 01001101
          115 callsubr
          hintmask 01001110
          -48 -97 callgsubr
          hintmask 10001110
          -57 callsubr
          hintmask 00101110
          -78 callgsubr
          hintmask 01010110
          4 -64 rlineto
          92 465 hlineto
          hintmask 01001101
          50 -22 callsubr
          endchar
        </CharString>
        <CharString name="uhungarumlaut">
          -70 callsubr
          122 116 40 callgsubr
          108 612 -82 callsubr
          22 -617 -88 callsubr
        </CharString>
        <CharString name="umacron">
          -70 callsubr
          162 91 hstemhm
          36 98 -29 165 -33 98 hintmask 00000000
          hintmask 01011010
          105 652 -50 callgsubr
          hintmask 01011101
          138 22 callgsubr
          hintmask 10011101
          -57 callsubr
          hintmask 00111101
          -78 callgsubr
          endchar
        </CharString>
        <CharString name="underscore">
          19 -180 86 hstem
          0 328 vstem
          -180 vmoveto
          328 86 -328 hlineto
          endchar
        </CharString>
        <CharString name="underscoredbl">
          19 -272 74 33 74 hstem
          0 328 vstem
          -165 vmoveto
          328 74 -328 hlineto
          -181 vmoveto
          328 74 -328 hlineto
          endchar
        </CharString>
        <CharString name="uni00AD">
          49 callsubr
        </CharString>
        <CharString name="uni00B2">
          -53 316 61 257 62 hstem
          42 67 39 67 vstem
          109 388 rmoveto
          34 callgsubr
          -34 -4 -5 -24 vhcurveto
          -57 vlineto
          3 33 19 1 15 37 callsubr
          61 -106 vlineto
          endchar
        </CharString>
        <CharString name="uni00B3">
          -52 308 62 104 61 100 61 hstemhm
          71 99 -26 68 -66 69 hintmask 11100100
          122 308 rmoveto
          68 25 81 callsubr
          hintmask 11101000
          10 callgsubr
          hintmask 11110000
          -46 -61 hlineto
          hintmask 11100100
          83 callsubr
          -58 vlineto
          -6 28 30 -3 20 hhcurveto
          endchar
        </CharString>
        <CharString name="uni00B5">
          -39 callsubr
        </CharString>
</ttFont>
